<mxfile host="app.diagrams.net" agent="Mozilla/5.0 (Macintosh; Intel Mac OS X 10_15_7) AppleWebKit/605.1.15 (KHTML, like Gecko) Version/18.3 Safari/605.1.15" locked="true" version="26.0.16">
  <diagram name="Page-1" id="aXA6Oc4o_EXEBMKBOaNi">
    <mxGraphModel grid="1" page="1" gridSize="10" guides="1" tooltips="1" connect="1" arrows="1" fold="1" pageScale="1" pageWidth="827" pageHeight="1169" math="0" shadow="0">
      <root>
        <mxCell id="0" />
        <mxCell id="1" parent="0" />
        <mxCell id="KfVdgGBA4cppGUbjS1bN-7" value="&lt;span style=&quot;color: rgb(0, 0, 0); font-family: SFMono-Regular, Menlo, Consolas, &amp;quot;PT Mono&amp;quot;, &amp;quot;Liberation Mono&amp;quot;, Courier, monospace; font-weight: 600; text-align: center; text-wrap-mode: nowrap;&quot;&gt;&lt;font style=&quot;font-size: 14px;&quot;&gt;surya_united_dev&lt;/font&gt;&lt;/span&gt;" style="points=[[0,0],[0.25,0],[0.5,0],[0.75,0],[1,0],[1,0.25],[1,0.5],[1,0.75],[1,1],[0.75,1],[0.5,1],[0.25,1],[0,1],[0,0.75],[0,0.5],[0,0.25]];outlineConnect=0;html=1;whiteSpace=wrap;fontSize=12;fontStyle=0;container=1;pointerEvents=0;collapsible=0;recursiveResize=0;shape=mxgraph.aws4.group;grIcon=mxgraph.aws4.group_account;verticalAlign=top;align=left;spacingLeft=30;dashed=0;strokeWidth=2;movable=1;resizable=1;rotatable=1;deletable=1;editable=1;locked=0;connectable=1;" vertex="1" parent="1">
          <mxGeometry x="1720" y="-1080" width="1659" height="1559" as="geometry" />
        </mxCell>
        <mxCell id="ogD9vOvKOTsoDzAMYJkQ-28" value="&lt;span class=&quot;notion-enable-hover&quot; spellcheck=&quot;false&quot; data-token-index=&quot;0&quot; style=&quot;font-family: SFMono-Regular, Menlo, Consolas, &amp;quot;PT Mono&amp;quot;, &amp;quot;Liberation Mono&amp;quot;, Courier, monospace; line-height: normal; background-image: initial; background-position: initial; background-size: initial; background-repeat: initial; background-attachment: initial; background-origin: initial; background-clip: initial; border-radius: 4px; font-size: 85%; padding: 0.2em 0.4em; font-weight: 600; isolation: auto; fill: rgb(51, 126, 169);&quot;&gt;&lt;font style=&quot;color: rgb(0, 0, 0);&quot;&gt;united-s3-glue-redshift-role&lt;/font&gt;&lt;/span&gt;" style="sketch=0;points=[[0,0,0],[0.25,0,0],[0.5,0,0],[0.75,0,0],[1,0,0],[0,1,0],[0.25,1,0],[0.5,1,0],[0.75,1,0],[1,1,0],[0,0.25,0],[0,0.5,0],[0,0.75,0],[1,0.25,0],[1,0.5,0],[1,0.75,0]];outlineConnect=0;fontColor=#232F3E;fillColor=#DD344C;strokeColor=#ffffff;dashed=0;verticalLabelPosition=bottom;verticalAlign=top;align=center;html=1;fontSize=12;fontStyle=0;aspect=fixed;shape=mxgraph.aws4.resourceIcon;resIcon=mxgraph.aws4.identity_and_access_management;movable=1;resizable=1;rotatable=1;deletable=1;editable=1;locked=0;connectable=1;" vertex="1" parent="KfVdgGBA4cppGUbjS1bN-7">
          <mxGeometry x="1509" y="937.19" width="78" height="78" as="geometry" />
        </mxCell>
        <mxCell id="ogD9vOvKOTsoDzAMYJkQ-32" value="&lt;span style=&quot;color: rgb(0, 0, 0); font-family: SFMono-Regular, Menlo, Consolas, &amp;quot;PT Mono&amp;quot;, &amp;quot;Liberation Mono&amp;quot;, Courier, monospace; font-weight: 600;&quot;&gt;united-redshift-s3-role&lt;/span&gt;" style="sketch=0;points=[[0,0,0],[0.25,0,0],[0.5,0,0],[0.75,0,0],[1,0,0],[0,1,0],[0.25,1,0],[0.5,1,0],[0.75,1,0],[1,1,0],[0,0.25,0],[0,0.5,0],[0,0.75,0],[1,0.25,0],[1,0.5,0],[1,0.75,0]];outlineConnect=0;fontColor=#232F3E;fillColor=#DD344C;strokeColor=#ffffff;dashed=0;verticalLabelPosition=bottom;verticalAlign=top;align=center;html=1;fontSize=12;fontStyle=0;aspect=fixed;shape=mxgraph.aws4.resourceIcon;resIcon=mxgraph.aws4.identity_and_access_management;movable=1;resizable=1;rotatable=1;deletable=1;editable=1;locked=0;connectable=1;" vertex="1" parent="KfVdgGBA4cppGUbjS1bN-7">
          <mxGeometry x="1509" y="389" width="78" height="78" as="geometry" />
        </mxCell>
        <mxCell id="HszNG5Km89kw8XTW4GH8-18" value="&lt;span class=&quot;notion-enable-hover&quot; spellcheck=&quot;false&quot; data-token-index=&quot;0&quot; style=&quot;font-family: SFMono-Regular, Menlo, Consolas, &amp;quot;PT Mono&amp;quot;, &amp;quot;Liberation Mono&amp;quot;, Courier, monospace; line-height: normal; background-image: initial; background-position: initial; background-size: initial; background-repeat: initial; background-attachment: initial; background-origin: initial; background-clip: initial; border-radius: 4px; font-size: 85%; padding: 0.2em 0.4em; font-weight: 600; isolation: auto; fill: rgb(51, 126, 169);&quot;&gt;&lt;font style=&quot;color: rgb(0, 0, 0);&quot;&gt;aws-eventbridge-role&lt;/font&gt;&lt;/span&gt;" style="sketch=0;points=[[0,0,0],[0.25,0,0],[0.5,0,0],[0.75,0,0],[1,0,0],[0,1,0],[0.25,1,0],[0.5,1,0],[0.75,1,0],[1,1,0],[0,0.25,0],[0,0.5,0],[0,0.75,0],[1,0.25,0],[1,0.5,0],[1,0.75,0]];outlineConnect=0;fontColor=#232F3E;fillColor=#DD344C;strokeColor=#ffffff;dashed=0;verticalLabelPosition=bottom;verticalAlign=top;align=center;html=1;fontSize=12;fontStyle=0;aspect=fixed;shape=mxgraph.aws4.resourceIcon;resIcon=mxgraph.aws4.identity_and_access_management;movable=1;resizable=1;rotatable=1;deletable=1;editable=1;locked=0;connectable=1;" vertex="1" parent="KfVdgGBA4cppGUbjS1bN-7">
          <mxGeometry x="1509" y="1089" width="78" height="78" as="geometry" />
        </mxCell>
        <mxCell id="HszNG5Km89kw8XTW4GH8-19" value="&lt;span class=&quot;notion-enable-hover&quot; spellcheck=&quot;false&quot; data-token-index=&quot;0&quot; style=&quot;font-family: SFMono-Regular, Menlo, Consolas, &amp;quot;PT Mono&amp;quot;, &amp;quot;Liberation Mono&amp;quot;, Courier, monospace; line-height: normal; background-image: initial; background-position: initial; background-size: initial; background-repeat: initial; background-attachment: initial; background-origin: initial; background-clip: initial; border-radius: 4px; font-size: 85%; padding: 0.2em 0.4em; font-weight: 600; isolation: auto; fill: rgb(51, 126, 169);&quot;&gt;&lt;font style=&quot;color: rgb(0, 0, 0);&quot;&gt;aws-stepfunction-role&lt;/font&gt;&lt;/span&gt;" style="sketch=0;points=[[0,0,0],[0.25,0,0],[0.5,0,0],[0.75,0,0],[1,0,0],[0,1,0],[0.25,1,0],[0.5,1,0],[0.75,1,0],[1,1,0],[0,0.25,0],[0,0.5,0],[0,0.75,0],[1,0.25,0],[1,0.5,0],[1,0.75,0]];outlineConnect=0;fontColor=#232F3E;fillColor=#DD344C;strokeColor=#ffffff;dashed=0;verticalLabelPosition=bottom;verticalAlign=top;align=center;html=1;fontSize=12;fontStyle=0;aspect=fixed;shape=mxgraph.aws4.resourceIcon;resIcon=mxgraph.aws4.identity_and_access_management;movable=1;resizable=1;rotatable=1;deletable=1;editable=1;locked=0;connectable=1;" vertex="1" parent="KfVdgGBA4cppGUbjS1bN-7">
          <mxGeometry x="1509" y="1239" width="78" height="78" as="geometry" />
        </mxCell>
        <mxCell id="KfVdgGBA4cppGUbjS1bN-23" value="&lt;span style=&quot;color: rgb(0, 0, 0); font-family: SFMono-Regular, Menlo, Consolas, &amp;quot;PT Mono&amp;quot;, &amp;quot;Liberation Mono&amp;quot;, Courier, monospace; font-size: 10.2px; font-weight: 600; text-wrap-mode: nowrap; background-color: rgb(248, 248, 247);&quot;&gt;S3 Landing Zone&lt;/span&gt;" style="dashed=1;verticalAlign=top;fontStyle=0;whiteSpace=wrap;html=1;dashPattern=1 1;rounded=1;movable=1;resizable=1;rotatable=1;deletable=1;editable=1;locked=0;connectable=1;align=left;spacingRight=0;spacingTop=0;spacingBottom=0;spacingLeft=19;" vertex="1" parent="1">
          <mxGeometry x="2029" y="-146.56" width="300" height="150" as="geometry" />
        </mxCell>
        <mxCell id="KfVdgGBA4cppGUbjS1bN-123" value="&lt;span style=&quot;color: rgb(0, 0, 0); font-family: SFMono-Regular, Menlo, Consolas, &amp;quot;PT Mono&amp;quot;, &amp;quot;Liberation Mono&amp;quot;, Courier, monospace; font-size: 13px; font-weight: 600;&quot;&gt;united-redshift-vpc (10.0.0.0/16)&lt;/span&gt;" style="points=[[0,0],[0.25,0],[0.5,0],[0.75,0],[1,0],[1,0.25],[1,0.5],[1,0.75],[1,1],[0.75,1],[0.5,1],[0.25,1],[0,1],[0,0.75],[0,0.5],[0,0.25]];outlineConnect=0;html=1;whiteSpace=wrap;fontSize=12;fontStyle=0;container=1;pointerEvents=0;collapsible=0;recursiveResize=0;shape=mxgraph.aws4.group;grIcon=mxgraph.aws4.group_vpc2;verticalAlign=top;align=left;spacingLeft=30;dashed=0;movable=1;resizable=1;rotatable=1;deletable=1;editable=1;locked=0;connectable=1;fillColor=default;" vertex="1" parent="1">
          <mxGeometry x="2119" y="-950.56" width="950" height="600" as="geometry" />
        </mxCell>
        <mxCell id="ogD9vOvKOTsoDzAMYJkQ-49" value="" style="edgeStyle=orthogonalEdgeStyle;html=1;endArrow=none;elbow=vertical;startArrow=openThin;startFill=0;strokeColor=#545B64;rounded=1;curved=0;dashed=1;movable=1;resizable=1;rotatable=1;deletable=1;editable=1;locked=0;connectable=1;" edge="1" parent="1" source="ogD9vOvKOTsoDzAMYJkQ-41" target="ogD9vOvKOTsoDzAMYJkQ-16">
          <mxGeometry width="100" relative="1" as="geometry">
            <mxPoint x="2949" y="-240.56" as="sourcePoint" />
            <mxPoint x="3049" y="-240.56" as="targetPoint" />
          </mxGeometry>
        </mxCell>
        <mxCell id="ogD9vOvKOTsoDzAMYJkQ-50" value="" style="edgeStyle=orthogonalEdgeStyle;html=1;endArrow=none;elbow=vertical;startArrow=openThin;startFill=0;strokeColor=#545B64;rounded=1;curved=0;dashed=1;movable=1;resizable=1;rotatable=1;deletable=1;editable=1;locked=0;connectable=1;" edge="1" parent="1" source="ogD9vOvKOTsoDzAMYJkQ-46" target="ogD9vOvKOTsoDzAMYJkQ-14">
          <mxGeometry width="100" relative="1" as="geometry">
            <mxPoint x="2910.484848484849" y="-259.39" as="sourcePoint" />
            <mxPoint x="2883" y="-480.9960606060605" as="targetPoint" />
            <Array as="points" />
          </mxGeometry>
        </mxCell>
        <mxCell id="ogD9vOvKOTsoDzAMYJkQ-10" value="&lt;span style=&quot;color: rgb(0, 0, 0); font-family: SFMono-Regular, Menlo, Consolas, &amp;quot;PT Mono&amp;quot;, &amp;quot;Liberation Mono&amp;quot;, Courier, monospace; font-size: 13px; font-weight: 600; text-align: center; text-wrap-mode: nowrap;&quot;&gt;united-redshift-subnet-group&lt;/span&gt;" style="sketch=0;outlineConnect=0;gradientColor=none;html=1;whiteSpace=wrap;fontSize=12;fontStyle=0;shape=mxgraph.aws4.group;grIcon=mxgraph.aws4.group_subnet;strokeColor=#879196;fillColor=none;verticalAlign=top;align=left;spacingLeft=30;fontColor=#879196;dashed=0;movable=1;resizable=1;rotatable=1;deletable=1;editable=1;locked=0;connectable=1;" vertex="1" parent="1">
          <mxGeometry x="2267" y="-910.56" width="782" height="540" as="geometry" />
        </mxCell>
        <mxCell id="KfVdgGBA4cppGUbjS1bN-109" value="&lt;span style=&quot;font-family: SFMono-Regular, Menlo, Consolas, &amp;quot;PT Mono&amp;quot;, &amp;quot;Liberation Mono&amp;quot;, Courier, monospace; font-size: 10.2px; font-weight: 600; text-align: left;&quot;&gt;&lt;font style=&quot;color: rgb(0, 0, 0);&quot;&gt;Availability Zone/us-east-2a&lt;/font&gt;&lt;/span&gt;" style="fillColor=#dae8fc;strokeColor=#6c8ebf;dashed=1;verticalAlign=top;fontStyle=0;whiteSpace=wrap;html=1;rounded=1;strokeWidth=2;movable=1;resizable=1;rotatable=1;deletable=1;editable=1;locked=0;connectable=1;spacingTop=7;" vertex="1" parent="1">
          <mxGeometry x="2329.18" y="-880.56" width="180" height="234.99" as="geometry" />
        </mxCell>
        <mxCell id="KfVdgGBA4cppGUbjS1bN-3" value="&lt;span style=&quot;font-family: SFMono-Regular, Menlo, Consolas, &amp;quot;PT Mono&amp;quot;, &amp;quot;Liberation Mono&amp;quot;, Courier, monospace; line-height: normal; background-image: initial; background-position: initial; background-size: initial; background-repeat: initial; background-attachment: initial; background-origin: initial; background-clip: initial; border-radius: 4px; font-size: 85%; padding: 0.2em 0.4em; font-weight: 600; isolation: auto; fill: rgb(51, 126, 169);&quot; data-token-index=&quot;0&quot; spellcheck=&quot;false&quot; class=&quot;notion-enable-hover&quot;&gt;&lt;font style=&quot;color: rgb(0, 0, 0);&quot;&gt;united-pipeline-eventbridge&lt;/font&gt;&lt;/span&gt;" style="sketch=0;points=[[0,0,0],[0.25,0,0],[0.5,0,0],[0.75,0,0],[1,0,0],[0,1,0],[0.25,1,0],[0.5,1,0],[0.75,1,0],[1,1,0],[0,0.25,0],[0,0.5,0],[0,0.75,0],[1,0.25,0],[1,0.5,0],[1,0.75,0]];outlineConnect=0;fontColor=#232F3E;fillColor=#E7157B;strokeColor=#ffffff;dashed=0;verticalLabelPosition=bottom;verticalAlign=top;align=center;html=1;fontSize=12;fontStyle=0;aspect=fixed;shape=mxgraph.aws4.resourceIcon;resIcon=mxgraph.aws4.eventbridge;spacingTop=-72;movable=1;resizable=1;rotatable=1;deletable=1;editable=1;locked=0;connectable=1;" vertex="1" parent="1">
          <mxGeometry x="2215" y="22.28000000000003" width="50" height="50" as="geometry" />
        </mxCell>
        <mxCell id="KfVdgGBA4cppGUbjS1bN-19" value="" style="group;movable=1;resizable=1;rotatable=1;deletable=1;editable=1;locked=0;connectable=1;" connectable="0" vertex="1" parent="1">
          <mxGeometry x="1849" y="-236.56" width="120" height="313.84" as="geometry" />
        </mxCell>
        <mxCell id="KfVdgGBA4cppGUbjS1bN-18" value="" style="fillColor=#EFF0F3;strokeColor=none;dashed=0;verticalAlign=top;fontStyle=0;fontColor=#232F3D;whiteSpace=wrap;html=1;rounded=1;glass=0;movable=1;resizable=1;rotatable=1;deletable=1;editable=1;locked=0;connectable=1;" vertex="1" parent="KfVdgGBA4cppGUbjS1bN-19">
          <mxGeometry width="120" height="313.84" as="geometry" />
        </mxCell>
        <mxCell id="KfVdgGBA4cppGUbjS1bN-10" value="&lt;span class=&quot;notion-enable-hover&quot; spellcheck=&quot;false&quot; data-token-index=&quot;0&quot; style=&quot;font-family: SFMono-Regular, Menlo, Consolas, &amp;quot;PT Mono&amp;quot;, &amp;quot;Liberation Mono&amp;quot;, Courier, monospace; line-height: normal; background-image: initial; background-position: initial; background-size: initial; background-repeat: initial; background-attachment: initial; background-origin: initial; background-clip: initial; border-radius: 4px; font-size: 85%; padding: 0.2em 0.4em; font-weight: 600; isolation: auto; fill: rgb(51, 126, 169);&quot;&gt;&lt;font style=&quot;color: rgb(0, 0, 0);&quot;&gt;servers&lt;/font&gt;&lt;/span&gt;" style="sketch=0;outlineConnect=0;fontColor=#232F3E;gradientColor=none;fillColor=#232F3D;strokeColor=none;dashed=0;verticalLabelPosition=bottom;verticalAlign=top;align=center;html=1;fontSize=12;fontStyle=0;aspect=fixed;pointerEvents=1;shape=mxgraph.aws4.servers;spacingTop=-9;movable=1;resizable=1;rotatable=1;deletable=1;editable=1;locked=0;connectable=1;" vertex="1" parent="KfVdgGBA4cppGUbjS1bN-19">
          <mxGeometry x="29.343846153846155" y="240.00094117647058" width="60" height="60" as="geometry" />
        </mxCell>
        <mxCell id="ogD9vOvKOTsoDzAMYJkQ-35" value="&lt;span style=&quot;color: rgb(0, 0, 0); font-family: SFMono-Regular, Menlo, Consolas, &amp;quot;PT Mono&amp;quot;, &amp;quot;Liberation Mono&amp;quot;, Courier, monospace; font-size: 13px; font-weight: 600;&quot;&gt;databases&lt;/span&gt;" style="sketch=0;points=[[0,0,0],[0.25,0,0],[0.5,0,0],[0.75,0,0],[1,0,0],[0,1,0],[0.25,1,0],[0.5,1,0],[0.75,1,0],[1,1,0],[0,0.25,0],[0,0.5,0],[0,0.75,0],[1,0.25,0],[1,0.5,0],[1,0.75,0]];outlineConnect=0;dashed=1;verticalLabelPosition=bottom;verticalAlign=top;align=center;html=1;fontSize=12;fontStyle=0;aspect=fixed;shape=mxgraph.aws4.resourceIcon;resIcon=mxgraph.aws4.database;fillColor=none;fontColor=#333333;strokeColor=#000000;spacing=0;spacingTop=-7;movable=1;resizable=1;rotatable=1;deletable=1;editable=1;locked=0;connectable=1;" vertex="1" parent="KfVdgGBA4cppGUbjS1bN-19">
          <mxGeometry x="26.84" y="150" width="65" height="65" as="geometry" />
        </mxCell>
        <mxCell id="ogD9vOvKOTsoDzAMYJkQ-38" value="&lt;span style=&quot;color: rgb(0, 0, 0); font-family: SFMono-Regular, Menlo, Consolas, &amp;quot;PT Mono&amp;quot;, &amp;quot;Liberation Mono&amp;quot;, Courier, monospace; font-size: 10.2px; font-weight: 600;&quot;&gt;Internet&lt;/span&gt;" style="sketch=0;outlineConnect=0;fontColor=#232F3E;gradientColor=none;fillColor=#232F3D;strokeColor=none;dashed=0;verticalLabelPosition=bottom;verticalAlign=top;align=center;html=1;fontSize=12;fontStyle=0;aspect=fixed;pointerEvents=1;shape=mxgraph.aws4.internet_alt1;spacingTop=-9;movable=1;resizable=1;rotatable=1;deletable=1;editable=1;locked=0;connectable=1;" vertex="1" parent="KfVdgGBA4cppGUbjS1bN-19">
          <mxGeometry x="24.34" y="7" width="70" height="43.08" as="geometry" />
        </mxCell>
        <mxCell id="KfVdgGBA4cppGUbjS1bN-11" value="&lt;span class=&quot;notion-enable-hover&quot; spellcheck=&quot;false&quot; data-token-index=&quot;0&quot; style=&quot;font-family: SFMono-Regular, Menlo, Consolas, &amp;quot;PT Mono&amp;quot;, &amp;quot;Liberation Mono&amp;quot;, Courier, monospace; line-height: normal; background-image: initial; background-position: initial; background-size: initial; background-repeat: initial; background-attachment: initial; background-origin: initial; background-clip: initial; border-radius: 4px; font-size: 85%; padding: 0.2em 0.4em; font-weight: 600; isolation: auto; fill: rgb(51, 126, 169);&quot;&gt;&lt;font style=&quot;color: rgb(0, 0, 0);&quot;&gt;source codes&lt;/font&gt;&lt;/span&gt;" style="sketch=0;outlineConnect=0;fontColor=#232F3E;gradientColor=none;fillColor=#232F3D;strokeColor=none;dashed=0;verticalLabelPosition=bottom;verticalAlign=top;align=center;html=1;fontSize=12;fontStyle=0;aspect=fixed;pointerEvents=1;shape=mxgraph.aws4.source_code;spacingTop=-8;movable=1;resizable=1;rotatable=1;deletable=1;editable=1;locked=0;connectable=1;" vertex="1" parent="KfVdgGBA4cppGUbjS1bN-19">
          <mxGeometry x="41.92000000000007" y="79.99999999999999" width="36.16" height="49.47" as="geometry" />
        </mxCell>
        <mxCell id="KfVdgGBA4cppGUbjS1bN-36" value="" style="htmDepartman barl=1;endArrow=open;elbow=vertical;startArrow=open;startFill=0;endFill=0;strokeColor=#545B64;rounded=1;exitX=1;exitY=0.5;exitDx=0;exitDy=0;shape=link;strokeWidth=1;targetPerimeterSpacing=0;width=7.142857142857142;dashed=1;flowAnimation=0;entryX=-0.002;entryY=0.447;entryDx=0;entryDy=0;entryPerimeter=0;movable=1;resizable=1;rotatable=1;deletable=1;editable=1;locked=0;connectable=1;" edge="1" parent="1" source="KfVdgGBA4cppGUbjS1bN-18" target="KfVdgGBA4cppGUbjS1bN-23">
          <mxGeometry width="100" relative="1" as="geometry">
            <mxPoint x="1120" y="500" as="sourcePoint" />
            <mxPoint x="1220" y="500" as="targetPoint" />
          </mxGeometry>
        </mxCell>
        <mxCell id="KfVdgGBA4cppGUbjS1bN-21" value="" style="edgeStyle=orthogonalEdgeStyle;rounded=1;orthogonalLoop=1;jettySize=auto;html=1;curved=0;endArrow=open;endFill=0;movable=1;resizable=1;rotatable=1;deletable=1;editable=1;locked=0;connectable=1;" edge="1" parent="1" source="KfVdgGBA4cppGUbjS1bN-18" target="KfVdgGBA4cppGUbjS1bN-1">
          <mxGeometry relative="1" as="geometry" />
        </mxCell>
        <mxCell id="KfVdgGBA4cppGUbjS1bN-118" value="&lt;span style=&quot;font-family: SFMono-Regular, Menlo, Consolas, &amp;quot;PT Mono&amp;quot;, &amp;quot;Liberation Mono&amp;quot;, Courier, monospace; font-size: 10.2px; font-weight: 600; text-align: left;&quot;&gt;Availability Zone/&lt;/span&gt;&lt;span style=&quot;font-family: SFMono-Regular, Menlo, Consolas, &amp;quot;PT Mono&amp;quot;, &amp;quot;Liberation Mono&amp;quot;, Courier, monospace; font-size: 10.2px; font-weight: 600; text-align: left;&quot;&gt;&lt;font style=&quot;color: rgb(0, 0, 0);&quot;&gt;us-east-2b&lt;/font&gt;&lt;/span&gt;" style="fillColor=#dae8fc;strokeColor=#6c8ebf;dashed=1;verticalAlign=top;fontStyle=0;whiteSpace=wrap;html=1;rounded=1;strokeWidth=2;movable=1;resizable=1;rotatable=1;deletable=1;editable=1;locked=0;connectable=1;spacingTop=7;" vertex="1" parent="1">
          <mxGeometry x="2569.18" y="-880.56" width="180" height="234.99" as="geometry" />
        </mxCell>
        <mxCell id="KfVdgGBA4cppGUbjS1bN-119" value="&lt;span style=&quot;font-family: SFMono-Regular, Menlo, Consolas, &amp;quot;PT Mono&amp;quot;, &amp;quot;Liberation Mono&amp;quot;, Courier, monospace; font-size: 10.2px; font-weight: 600; text-align: left;&quot;&gt;Availability Zone/&lt;/span&gt;&lt;span style=&quot;font-family: SFMono-Regular, Menlo, Consolas, &amp;quot;PT Mono&amp;quot;, &amp;quot;Liberation Mono&amp;quot;, Courier, monospace; font-size: 10.2px; font-weight: 600; text-align: left;&quot;&gt;&lt;font style=&quot;color: rgb(0, 0, 0);&quot;&gt;us-east-2c&lt;/font&gt;&lt;/span&gt;" style="fillColor=#dae8fc;strokeColor=#6c8ebf;dashed=1;verticalAlign=top;fontStyle=0;whiteSpace=wrap;html=1;rounded=1;strokeWidth=2;movable=1;resizable=1;rotatable=1;deletable=1;editable=1;locked=0;connectable=1;spacingTop=7;" vertex="1" parent="1">
          <mxGeometry x="2809.18" y="-880.56" width="180" height="234.99" as="geometry" />
        </mxCell>
        <mxCell id="KfVdgGBA4cppGUbjS1bN-105" value="&lt;span style=&quot;font-family: SFMono-Regular, Menlo, Consolas, &amp;quot;PT Mono&amp;quot;, &amp;quot;Liberation Mono&amp;quot;, Courier, monospace; font-size: 10.2px; font-weight: 600;&quot;&gt;&lt;font style=&quot;color: rgb(0, 0, 0);&quot;&gt;united-us-east-2b (10.0.2.0/24)&lt;/font&gt;&lt;/span&gt;" style="points=[[0,0],[0.25,0],[0.5,0],[0.75,0],[1,0],[1,0.25],[1,0.5],[1,0.75],[1,1],[0.75,1],[0.5,1],[0.25,1],[0,1],[0,0.75],[0,0.5],[0,0.25]];outlineConnect=0;gradientColor=none;html=1;whiteSpace=wrap;fontSize=12;fontStyle=0;container=1;pointerEvents=0;collapsible=0;recursiveResize=0;shape=mxgraph.aws4.group;grIcon=mxgraph.aws4.group_security_group;grStroke=0;strokeColor=#00A4A6;fillColor=#E6F6F7;verticalAlign=top;align=left;spacingLeft=30;fontColor=#147EBA;dashed=0;movable=1;resizable=1;rotatable=1;deletable=1;editable=1;locked=0;connectable=1;" vertex="1" parent="1">
          <mxGeometry x="2579.18" y="-840.56" width="160" height="160" as="geometry" />
        </mxCell>
        <mxCell id="KfVdgGBA4cppGUbjS1bN-106" value="&lt;span class=&quot;notion-enable-hover&quot; spellcheck=&quot;false&quot; data-token-index=&quot;0&quot; style=&quot;font-family: SFMono-Regular, Menlo, Consolas, &amp;quot;PT Mono&amp;quot;, &amp;quot;Liberation Mono&amp;quot;, Courier, monospace; line-height: normal; background-image: initial; background-position: initial; background-size: initial; background-repeat: initial; background-attachment: initial; background-origin: initial; background-clip: initial; border-radius: 4px; font-size: 85%; padding: 0.2em 0.4em; font-weight: 600; isolation: auto; fill: rgb(51, 126, 169);&quot;&gt;&lt;font style=&quot;color: rgb(0, 0, 0);&quot;&gt;united-us-east-2a (10.0.1.0/24)&lt;/font&gt;&lt;/span&gt;" style="points=[[0,0],[0.25,0],[0.5,0],[0.75,0],[1,0],[1,0.25],[1,0.5],[1,0.75],[1,1],[0.75,1],[0.5,1],[0.25,1],[0,1],[0,0.75],[0,0.5],[0,0.25]];outlineConnect=0;gradientColor=none;html=1;whiteSpace=wrap;fontSize=12;fontStyle=0;container=1;pointerEvents=0;collapsible=0;recursiveResize=0;shape=mxgraph.aws4.group;grIcon=mxgraph.aws4.group_security_group;grStroke=0;strokeColor=#00A4A6;fillColor=#E6F6F7;verticalAlign=top;align=left;spacingLeft=30;fontColor=#147EBA;dashed=0;movable=1;resizable=1;rotatable=1;deletable=1;editable=1;locked=0;connectable=1;" vertex="1" parent="1">
          <mxGeometry x="2339.18" y="-834.56" width="160" height="160" as="geometry" />
        </mxCell>
        <mxCell id="KfVdgGBA4cppGUbjS1bN-110" value="&lt;span class=&quot;notion-enable-hover&quot; spellcheck=&quot;false&quot; data-token-index=&quot;0&quot; style=&quot;font-family: SFMono-Regular, Menlo, Consolas, &amp;quot;PT Mono&amp;quot;, &amp;quot;Liberation Mono&amp;quot;, Courier, monospace; line-height: normal; background-image: initial; background-position: initial; background-size: initial; background-repeat: initial; background-attachment: initial; background-origin: initial; background-clip: initial; border-radius: 4px; padding: 0.2em 0.4em; font-weight: 600; isolation: auto; fill: rgb(51, 126, 169); background-color: light-dark(#ffffff, var(--ge-dark-color, #121212));&quot;&gt;&lt;font style=&quot;color: rgb(0, 0, 0); font-size: 13px;&quot;&gt;united-redshift-gateway&lt;/font&gt;&lt;/span&gt;" style="sketch=0;outlineConnect=0;fontColor=#232F3E;gradientColor=none;strokeColor=none;fillColor=#8C4FFF;dashed=0;verticalLabelPosition=bottom;verticalAlign=top;align=center;html=1;fontSize=12;fontStyle=0;aspect=fixed;shape=mxgraph.aws4.internet_gateway;resIcon=mxgraph.aws4.internet_gateway;pointerEvents=1;spacingRight=0;labelBackgroundColor=none;movable=1;resizable=1;rotatable=1;deletable=1;editable=1;locked=0;connectable=1;" vertex="1" parent="1">
          <mxGeometry x="1880" y="-569.56" width="60" height="60" as="geometry" />
        </mxCell>
        <mxCell id="KfVdgGBA4cppGUbjS1bN-114" value="" style="edgeStyle=orthogonalEdgeStyle;html=1;endArrow=openThin;elbow=vertical;startArrow=none;endFill=0;strokeColor=#545B64;rounded=1;curved=0;movable=1;resizable=1;rotatable=1;deletable=1;editable=1;locked=0;connectable=1;" edge="1" parent="1" target="KfVdgGBA4cppGUbjS1bN-123">
          <mxGeometry width="100" relative="1" as="geometry">
            <mxPoint x="1940" y="-540.56" as="sourcePoint" />
            <mxPoint x="2259" y="-540.56" as="targetPoint" />
            <Array as="points">
              <mxPoint x="2229" y="-540.56" />
              <mxPoint x="2229" y="-540.56" />
            </Array>
          </mxGeometry>
        </mxCell>
        <mxCell id="KfVdgGBA4cppGUbjS1bN-115" value="&lt;span style=&quot;color: rgb(0, 0, 0); font-family: SFMono-Regular, Menlo, Consolas, &amp;quot;PT Mono&amp;quot;, &amp;quot;Liberation Mono&amp;quot;, Courier, monospace; font-size: 13px; font-weight: 600;&quot;&gt;united-route-table&lt;/span&gt;" style="sketch=0;outlineConnect=0;fontColor=#232F3E;gradientColor=none;fillColor=#8C4FFF;strokeColor=none;dashed=0;verticalLabelPosition=bottom;verticalAlign=top;align=center;html=1;fontSize=12;fontStyle=0;aspect=fixed;pointerEvents=1;shape=mxgraph.aws4.route_table;movable=1;resizable=1;rotatable=1;deletable=1;editable=1;locked=0;connectable=1;" vertex="1" parent="1">
          <mxGeometry x="1989" y="-645.5699999999999" width="60" height="58.46" as="geometry" />
        </mxCell>
        <mxCell id="KfVdgGBA4cppGUbjS1bN-117" value="&lt;span style=&quot;font-family: SFMono-Regular, Menlo, Consolas, &amp;quot;PT Mono&amp;quot;, &amp;quot;Liberation Mono&amp;quot;, Courier, monospace; font-size: 10.2px; font-weight: 600;&quot;&gt;&lt;font style=&quot;color: rgb(0, 0, 0);&quot;&gt;united-us-east-2c (10.0.3.0/24)&lt;/font&gt;&lt;/span&gt;" style="points=[[0,0],[0.25,0],[0.5,0],[0.75,0],[1,0],[1,0.25],[1,0.5],[1,0.75],[1,1],[0.75,1],[0.5,1],[0.25,1],[0,1],[0,0.75],[0,0.5],[0,0.25]];outlineConnect=0;gradientColor=none;html=1;whiteSpace=wrap;fontSize=12;fontStyle=0;container=1;pointerEvents=0;collapsible=0;recursiveResize=0;shape=mxgraph.aws4.group;grIcon=mxgraph.aws4.group_security_group;grStroke=0;strokeColor=#00A4A6;fillColor=#E6F6F7;verticalAlign=top;align=left;spacingLeft=30;fontColor=#147EBA;dashed=0;movable=1;resizable=1;rotatable=1;deletable=1;editable=1;locked=0;connectable=1;" vertex="1" parent="1">
          <mxGeometry x="2819.18" y="-840.56" width="160" height="160" as="geometry" />
        </mxCell>
        <mxCell id="KfVdgGBA4cppGUbjS1bN-128" value="" style="edgeStyle=orthogonalEdgeStyle;html=1;endArrow=openThin;elbow=vertical;startArrow=none;endFill=0;strokeColor=#545B64;rounded=1;curved=0;movable=1;resizable=1;rotatable=1;deletable=1;editable=1;locked=0;connectable=1;" edge="1" parent="1" source="KfVdgGBA4cppGUbjS1bN-115">
          <mxGeometry width="100" relative="1" as="geometry">
            <mxPoint x="1999" y="-660.56" as="sourcePoint" />
            <mxPoint x="1910.066666666667" y="-570.5593167843317" as="targetPoint" />
          </mxGeometry>
        </mxCell>
        <mxCell id="KfVdgGBA4cppGUbjS1bN-130" value="&lt;span style=&quot;color: rgb(64, 64, 64); font-family: Menlo, &amp;quot;Roboto Mono&amp;quot;, &amp;quot;Courier New&amp;quot;, Courier, monospace, Inter, sans-serif; font-size: 14.0018px; text-align: left; text-wrap-mode: wrap; background-color: rgb(236, 236, 236);&quot;&gt;&lt;b&gt;0.0.0.0/0&lt;/b&gt;&lt;/span&gt;" style="edgeLabel;html=1;align=center;verticalAlign=middle;resizable=1;points=[];movable=1;rotatable=1;deletable=1;editable=1;locked=0;connectable=1;" connectable="0" vertex="1" parent="KfVdgGBA4cppGUbjS1bN-128">
          <mxGeometry x="-0.0872" y="-2" relative="1" as="geometry">
            <mxPoint x="-18" y="-2" as="offset" />
          </mxGeometry>
        </mxCell>
        <mxCell id="KfVdgGBA4cppGUbjS1bN-129" value="" style="edgeStyle=orthogonalEdgeStyle;html=1;endArrow=none;elbow=vertical;startArrow=open;startFill=0;strokeColor=#545B64;rounded=1;curved=0;movable=1;resizable=1;rotatable=1;deletable=1;editable=1;locked=0;connectable=1;" edge="1" parent="1" source="KfVdgGBA4cppGUbjS1bN-106" target="KfVdgGBA4cppGUbjS1bN-115">
          <mxGeometry width="100" relative="1" as="geometry">
            <mxPoint x="2449.18" y="-619.56" as="sourcePoint" />
            <mxPoint x="2069.0031511492925" y="-630.56" as="targetPoint" />
            <Array as="points">
              <mxPoint x="2419" y="-630.56" />
            </Array>
          </mxGeometry>
        </mxCell>
        <mxCell id="KfVdgGBA4cppGUbjS1bN-134" value="" style="edgeStyle=orthogonalEdgeStyle;html=1;endArrow=none;elbow=vertical;startArrow=open;startFill=0;strokeColor=#545B64;rounded=1;curved=0;movable=1;resizable=1;rotatable=1;deletable=1;editable=1;locked=0;connectable=1;" edge="1" parent="1" source="KfVdgGBA4cppGUbjS1bN-105" target="KfVdgGBA4cppGUbjS1bN-115">
          <mxGeometry width="100" relative="1" as="geometry">
            <mxPoint x="2679.18" y="-670.56" as="sourcePoint" />
            <mxPoint x="2069.0031511492925" y="-620.56" as="targetPoint" />
            <Array as="points">
              <mxPoint x="2659" y="-621" />
            </Array>
          </mxGeometry>
        </mxCell>
        <mxCell id="KfVdgGBA4cppGUbjS1bN-132" value="" style="edgeStyle=orthogonalEdgeStyle;html=1;endArrow=none;elbow=vertical;startArrow=open;startFill=0;strokeColor=#545B64;rounded=1;curved=0;movable=1;resizable=1;rotatable=1;deletable=1;editable=1;locked=0;connectable=1;" edge="1" parent="1" source="KfVdgGBA4cppGUbjS1bN-117" target="KfVdgGBA4cppGUbjS1bN-115">
          <mxGeometry width="100" relative="1" as="geometry">
            <mxPoint x="2589.18" y="-595.56" as="sourcePoint" />
            <mxPoint x="2069.0031511492925" y="-610.56" as="targetPoint" />
            <Array as="points">
              <mxPoint x="2899" y="-611" />
            </Array>
          </mxGeometry>
        </mxCell>
        <mxCell id="ogD9vOvKOTsoDzAMYJkQ-12" value="&lt;span style=&quot;color: rgb(0, 0, 0); font-family: SFMono-Regular, Menlo, Consolas, &amp;quot;PT Mono&amp;quot;, &amp;quot;Liberation Mono&amp;quot;, Courier, monospace; font-size: 13px; font-weight: 600;&quot;&gt;united-&lt;/span&gt;&lt;span style=&quot;background-color: transparent; color: rgb(0, 0, 0); font-family: SFMono-Regular, Menlo, Consolas, &amp;quot;PT Mono&amp;quot;, &amp;quot;Liberation Mono&amp;quot;, Courier, monospace; font-size: 13px; font-weight: 600;&quot;&gt;glue-endpoint&lt;/span&gt;" style="sketch=0;outlineConnect=0;fontColor=#232F3E;gradientColor=none;fillColor=#8C4FFF;strokeColor=none;dashed=0;verticalLabelPosition=bottom;verticalAlign=top;align=center;html=1;fontSize=12;fontStyle=0;aspect=fixed;pointerEvents=1;shape=mxgraph.aws4.endpoint;movable=1;resizable=1;rotatable=1;deletable=1;editable=1;locked=0;connectable=1;" vertex="1" parent="1">
          <mxGeometry x="2321" y="-508.56" width="60" height="60" as="geometry" />
        </mxCell>
        <mxCell id="ogD9vOvKOTsoDzAMYJkQ-21" value="" style="group;spacingTop=0;labelBackgroundColor=default;labelBorderColor=none;movable=1;resizable=1;rotatable=1;deletable=1;editable=1;locked=0;connectable=1;" connectable="0" vertex="1" parent="1">
          <mxGeometry x="2438" y="-588.56" width="480" height="160" as="geometry" />
        </mxCell>
        <mxCell id="HszNG5Km89kw8XTW4GH8-15" value="" style="fillColor=none;strokeColor=#5A6C86;dashed=1;verticalAlign=top;fontStyle=0;fontColor=#5A6C86;whiteSpace=wrap;html=1;dashPattern=1 2;movable=1;resizable=1;rotatable=1;deletable=1;editable=1;locked=0;connectable=1;" vertex="1" parent="ogD9vOvKOTsoDzAMYJkQ-21">
          <mxGeometry x="191" y="30" width="279" height="110" as="geometry" />
        </mxCell>
        <mxCell id="ogD9vOvKOTsoDzAMYJkQ-4" value="&lt;span style=&quot;text-align: start; font-family: SFMono-Regular, Menlo, Consolas, &amp;quot;PT Mono&amp;quot;, &amp;quot;Liberation Mono&amp;quot;, Courier, monospace; line-height: normal; background: rgb(248, 248, 247); border-radius: 4px; font-size: 13.6px; padding: 0.2em 0.4em; font-weight: 600; isolation: auto; fill: rgb(51, 126, 169); color: rgb(0, 0, 0);&quot; class=&quot;notion-enable-hover&quot; spellcheck=&quot;false&quot; data-token-index=&quot;0&quot;&gt;united-redshift-security-group&lt;/span&gt;" style="fontStyle=0;verticalAlign=top;align=center;spacingTop=-2;fillColor=none;rounded=0;whiteSpace=wrap;html=1;strokeColor=#FF0000;strokeWidth=2;dashed=1;container=0;collapsible=0;expand=0;recursiveResize=0;movable=1;resizable=1;rotatable=1;deletable=1;editable=1;locked=0;connectable=1;" vertex="1" parent="ogD9vOvKOTsoDzAMYJkQ-21">
          <mxGeometry width="480" height="160" as="geometry" />
        </mxCell>
        <mxCell id="ogD9vOvKOTsoDzAMYJkQ-2" value="&lt;span style=&quot;color: rgb(0, 0, 0); font-family: SFMono-Regular, Menlo, Consolas, &amp;quot;PT Mono&amp;quot;, &amp;quot;Liberation Mono&amp;quot;, Courier, monospace; font-size: 13px; font-weight: 600;&quot;&gt;united-redshift-cluster&lt;/span&gt;" style="sketch=0;points=[[0,0,0],[0.25,0,0],[0.5,0,0],[0.75,0,0],[1,0,0],[0,1,0],[0.25,1,0],[0.5,1,0],[0.75,1,0],[1,1,0],[0,0.25,0],[0,0.5,0],[0,0.75,0],[1,0.25,0],[1,0.5,0],[1,0.75,0]];outlineConnect=0;fontColor=#232F3E;fillColor=#8C4FFF;strokeColor=#ffffff;dashed=0;verticalLabelPosition=bottom;verticalAlign=top;align=center;html=1;fontSize=12;fontStyle=0;aspect=fixed;shape=mxgraph.aws4.resourceIcon;resIcon=mxgraph.aws4.redshift;spacing=0;movable=1;resizable=1;rotatable=1;deletable=1;editable=1;locked=0;connectable=1;" vertex="1" parent="ogD9vOvKOTsoDzAMYJkQ-21">
          <mxGeometry x="54" y="37.5" width="82" height="82" as="geometry" />
        </mxCell>
        <mxCell id="ogD9vOvKOTsoDzAMYJkQ-13" value="&lt;span style=&quot;color: rgb(0, 0, 0); font-family: SFMono-Regular, Menlo, Consolas, &amp;quot;PT Mono&amp;quot;, &amp;quot;Liberation Mono&amp;quot;, Courier, monospace; font-size: 13px; font-weight: 600;&quot;&gt;united_db&lt;/span&gt;" style="sketch=0;points=[[0,0,0],[0.25,0,0],[0.5,0,0],[0.75,0,0],[1,0,0],[0,1,0],[0.25,1,0],[0.5,1,0],[0.75,1,0],[1,1,0],[0,0.25,0],[0,0.5,0],[0,0.75,0],[1,0.25,0],[1,0.5,0],[1,0.75,0]];outlineConnect=0;dashed=1;verticalLabelPosition=bottom;verticalAlign=top;align=center;html=1;fontSize=12;fontStyle=0;aspect=fixed;shape=mxgraph.aws4.resourceIcon;resIcon=mxgraph.aws4.database;fillColor=#f5f5f5;fontColor=#333333;strokeColor=#666666;spacing=0;movable=1;resizable=1;rotatable=1;deletable=1;editable=1;locked=0;connectable=1;" vertex="1" parent="ogD9vOvKOTsoDzAMYJkQ-21">
          <mxGeometry x="200" y="46.5" width="65" height="65" as="geometry" />
        </mxCell>
        <mxCell id="ogD9vOvKOTsoDzAMYJkQ-14" value="&lt;span class=&quot;notion-enable-hover&quot; spellcheck=&quot;false&quot; data-token-index=&quot;0&quot; style=&quot;font-family: SFMono-Regular, Menlo, Consolas, &amp;quot;PT Mono&amp;quot;, &amp;quot;Liberation Mono&amp;quot;, Courier, monospace; line-height: normal; background-image: initial; background-position: initial; background-size: initial; background-repeat: initial; background-attachment: initial; background-origin: initial; background-clip: initial; border-radius: 4px; font-size: 85%; padding: 0.2em 0.4em; font-weight: 600; isolation: auto; fill: rgb(51, 126, 169); background-color: rgb(230, 230, 230);&quot;&gt;&lt;font style=&quot;color: rgb(0, 0, 0);&quot;&gt;daily_flights_fact&lt;/font&gt;&lt;/span&gt;" style="sketch=0;outlineConnect=0;fontColor=#232F3E;gradientColor=none;strokeColor=#232F3E;fillColor=#ffffff;dashed=0;verticalLabelPosition=bottom;verticalAlign=top;align=center;html=1;fontSize=12;fontStyle=0;aspect=fixed;shape=mxgraph.aws4.resourceIcon;resIcon=mxgraph.aws4.table;spacing=0;spacingTop=-8;movable=1;resizable=1;rotatable=1;deletable=1;editable=1;locked=0;connectable=1;" vertex="1" parent="ogD9vOvKOTsoDzAMYJkQ-21">
          <mxGeometry x="381" y="69.5" width="50" height="50" as="geometry" />
        </mxCell>
        <mxCell id="ogD9vOvKOTsoDzAMYJkQ-18" value="" style="edgeStyle=orthogonalEdgeStyle;html=1;endArrow=block;elbow=vertical;startArrow=block;startFill=1;endFill=1;strokeColor=#545B64;rounded=1;curved=0;dashed=1;movable=1;resizable=1;rotatable=1;deletable=1;editable=1;locked=0;connectable=1;" edge="1" parent="ogD9vOvKOTsoDzAMYJkQ-21" source="ogD9vOvKOTsoDzAMYJkQ-2" target="ogD9vOvKOTsoDzAMYJkQ-13">
          <mxGeometry width="100" relative="1" as="geometry">
            <mxPoint x="160" y="60" as="sourcePoint" />
            <mxPoint x="260" y="60" as="targetPoint" />
          </mxGeometry>
        </mxCell>
        <mxCell id="ogD9vOvKOTsoDzAMYJkQ-16" value="&lt;span class=&quot;notion-enable-hover&quot; spellcheck=&quot;false&quot; data-token-index=&quot;0&quot; style=&quot;font-family: SFMono-Regular, Menlo, Consolas, &amp;quot;PT Mono&amp;quot;, &amp;quot;Liberation Mono&amp;quot;, Courier, monospace; line-height: normal; background-image: initial; background-position: initial; background-size: initial; background-repeat: initial; background-attachment: initial; background-origin: initial; background-clip: initial; border-radius: 4px; font-size: 85%; padding: 0.2em 0.4em; font-weight: 600; isolation: auto; fill: rgb(51, 126, 169);&quot;&gt;&lt;font style=&quot;&quot;&gt;airports_dim&lt;/font&gt;&lt;/span&gt;" style="sketch=0;outlineConnect=0;fontColor=light-dark(#000000, #bdc7d4);gradientColor=none;strokeColor=#232F3E;fillColor=#ffffff;dashed=0;verticalLabelPosition=bottom;verticalAlign=top;align=center;html=1;fontSize=12;fontStyle=0;aspect=fixed;shape=mxgraph.aws4.resourceIcon;resIcon=mxgraph.aws4.table;spacing=0;spacingTop=-8;labelBackgroundColor=light-dark(#EBEBEB,#EDEDED);labelBorderColor=none;movable=1;resizable=1;rotatable=1;deletable=1;editable=1;locked=0;connectable=1;" vertex="1" parent="ogD9vOvKOTsoDzAMYJkQ-21">
          <mxGeometry x="294" y="30.5" width="50" height="50" as="geometry" />
        </mxCell>
        <mxCell id="ogD9vOvKOTsoDzAMYJkQ-22" value="" style="edgeStyle=orthogonalEdgeStyle;html=1;endArrow=openThin;elbow=vertical;startArrow=none;endFill=0;strokeColor=#545B64;rounded=1;curved=0;movable=1;resizable=1;rotatable=1;deletable=1;editable=1;locked=0;connectable=1;" edge="1" parent="1" source="KfVdgGBA4cppGUbjS1bN-115" target="KfVdgGBA4cppGUbjS1bN-135">
          <mxGeometry width="100" relative="1" as="geometry">
            <mxPoint x="2099" y="-580.56" as="sourcePoint" />
            <mxPoint x="2199" y="-580.56" as="targetPoint" />
            <Array as="points">
              <mxPoint x="2193" y="-600.56" />
            </Array>
          </mxGeometry>
        </mxCell>
        <mxCell id="ogD9vOvKOTsoDzAMYJkQ-23" value="" style="edgeStyle=orthogonalEdgeStyle;html=1;endArrow=openThin;elbow=vertical;startArrow=none;endFill=0;strokeColor=#545B64;rounded=1;curved=0;entryX=0.001;entryY=0.686;entryDx=0;entryDy=0;entryPerimeter=0;dashed=1;shape=link;width=9.130434782608695;movable=1;resizable=1;rotatable=1;deletable=1;editable=1;locked=0;connectable=1;" edge="1" parent="1" source="ogD9vOvKOTsoDzAMYJkQ-12" target="ogD9vOvKOTsoDzAMYJkQ-4">
          <mxGeometry width="100" relative="1" as="geometry">
            <mxPoint x="2378" y="-520.56" as="sourcePoint" />
            <mxPoint x="2487" y="-521.56" as="targetPoint" />
            <Array as="points" />
          </mxGeometry>
        </mxCell>
        <mxCell id="ogD9vOvKOTsoDzAMYJkQ-24" value="" style="edgeStyle=orthogonalEdgeStyle;html=1;endArrow=classic;elbow=vertical;startArrow=classic;endFill=1;strokeColor=#545B64;rounded=1;exitX=0.953;exitY=0.496;exitDx=0;exitDy=0;exitPerimeter=0;curved=0;startFill=1;dashed=1;movable=1;resizable=1;rotatable=1;deletable=1;editable=1;locked=0;connectable=1;" edge="1" parent="1" source="ogD9vOvKOTsoDzAMYJkQ-12" target="ogD9vOvKOTsoDzAMYJkQ-2">
          <mxGeometry width="100" relative="1" as="geometry">
            <mxPoint x="2338" y="-538.56" as="sourcePoint" />
            <mxPoint x="2488" y="-478.56" as="targetPoint" />
            <Array as="points">
              <mxPoint x="2468" y="-478.56" />
              <mxPoint x="2468" y="-478.56" />
            </Array>
          </mxGeometry>
        </mxCell>
        <mxCell id="ogD9vOvKOTsoDzAMYJkQ-25" value="" style="edgeStyle=orthogonalEdgeStyle;html=1;endArrow=classic;elbow=vertical;startArrow=classic;endFill=1;strokeColor=#545B64;rounded=1;curved=0;startFill=1;dashed=1;movable=1;resizable=1;rotatable=1;deletable=1;editable=1;locked=0;connectable=1;" edge="1" parent="1" source="KfVdgGBA4cppGUbjS1bN-135" target="ogD9vOvKOTsoDzAMYJkQ-2">
          <mxGeometry width="100" relative="1" as="geometry">
            <mxPoint x="2218.2400000000002" y="-538.8" as="sourcePoint" />
            <mxPoint x="2328" y="-538.56" as="targetPoint" />
            <Array as="points">
              <mxPoint x="2469" y="-540.56" />
              <mxPoint x="2469" y="-540.56" />
            </Array>
          </mxGeometry>
        </mxCell>
        <mxCell id="KfVdgGBA4cppGUbjS1bN-135" value="&lt;span style=&quot;&quot;&gt;&lt;span style=&quot;color: rgb(0, 0, 0); font-family: SFMono-Regular, Menlo, Consolas, &amp;quot;PT Mono&amp;quot;, &amp;quot;Liberation Mono&amp;quot;, Courier, monospace; font-size: 13px; font-weight: 600;&quot;&gt;united-&lt;/span&gt;&lt;span style=&quot;color: rgb(0, 0, 0); font-family: SFMono-Regular, Menlo, Consolas, &amp;quot;PT Mono&amp;quot;, &amp;quot;Liberation Mono&amp;quot;, Courier, monospace; font-size: 13px; font-weight: 600;&quot;&gt;s3-endpoint&lt;/span&gt;&lt;/span&gt;" style="sketch=0;outlineConnect=0;fontColor=#232F3E;gradientColor=none;fillColor=#8C4FFF;strokeColor=none;dashed=0;verticalLabelPosition=bottom;verticalAlign=top;align=center;html=1;fontSize=12;fontStyle=0;aspect=fixed;pointerEvents=1;shape=mxgraph.aws4.endpoint;spacingTop=4;spacing=0;labelBackgroundColor=default;movable=1;resizable=1;rotatable=1;deletable=1;editable=1;locked=0;connectable=1;" vertex="1" parent="1">
          <mxGeometry x="2163" y="-570.56" width="60" height="60" as="geometry" />
        </mxCell>
        <mxCell id="KfVdgGBA4cppGUbjS1bN-25" value="&lt;span class=&quot;notion-enable-hover&quot; spellcheck=&quot;false&quot; data-token-index=&quot;0&quot; style=&quot;font-family: SFMono-Regular, Menlo, Consolas, &amp;quot;PT Mono&amp;quot;, &amp;quot;Liberation Mono&amp;quot;, Courier, monospace; line-height: normal; background-image: initial; background-position: initial; background-size: initial; background-repeat: initial; background-attachment: initial; background-origin: initial; background-clip: initial; border-radius: 4px; font-size: 85%; padding: 0.2em 0.4em; font-weight: 600; isolation: auto; fill: rgb(51, 126, 169);&quot;&gt;&lt;font style=&quot;color: rgb(0, 0, 0);&quot;&gt;flights.csv&lt;/font&gt;&lt;/span&gt;" style="sketch=0;outlineConnect=0;fontColor=#232F3E;gradientColor=none;fillColor=#232F3D;strokeColor=none;dashed=0;verticalLabelPosition=bottom;verticalAlign=top;align=center;html=1;fontSize=12;fontStyle=0;aspect=fixed;pointerEvents=1;shape=mxgraph.aws4.source_code;movable=1;resizable=1;rotatable=1;deletable=1;editable=1;locked=0;connectable=1;" vertex="1" parent="1">
          <mxGeometry x="2276" y="-58.56" width="26" height="35.53" as="geometry" />
        </mxCell>
        <mxCell id="KfVdgGBA4cppGUbjS1bN-28" value="&lt;span class=&quot;notion-enable-hover&quot; spellcheck=&quot;false&quot; data-token-index=&quot;0&quot; style=&quot;font-family: SFMono-Regular, Menlo, Consolas, &amp;quot;PT Mono&amp;quot;, &amp;quot;Liberation Mono&amp;quot;, Courier, monospace; line-height: normal; background-image: initial; background-position: initial; background-size: initial; background-repeat: initial; background-attachment: initial; background-origin: initial; background-clip: initial; border-radius: 4px; font-size: 85%; padding: 0.2em 0.4em; font-weight: 600; isolation: auto; fill: rgb(51, 126, 169);&quot;&gt;&lt;font style=&quot;color: rgb(0, 0, 0);&quot;&gt;airports.csv&lt;/font&gt;&lt;/span&gt;" style="sketch=0;outlineConnect=0;fontColor=#232F3E;gradientColor=none;fillColor=#232F3D;strokeColor=none;dashed=0;verticalLabelPosition=bottom;verticalAlign=top;align=center;html=1;fontSize=12;fontStyle=0;aspect=fixed;pointerEvents=1;shape=mxgraph.aws4.source_code;movable=1;resizable=1;rotatable=1;deletable=1;editable=1;locked=0;connectable=1;" vertex="1" parent="1">
          <mxGeometry x="2229" y="-121.57" width="26" height="35.53" as="geometry" />
        </mxCell>
        <mxCell id="KfVdgGBA4cppGUbjS1bN-27" value="" style="edgeStyle=orthogonalEdgeStyle;htmDepartman barl=1;endArrow=open;elbow=vertical;startArrow=none;startFill=0;endFill=0;strokeColor=#545B64;rounded=1;exitX=1;exitY=0.5;exitDx=0;exitDy=0;exitPerimeter=0;flowAnimation=0;curved=0;movable=1;resizable=1;rotatable=1;deletable=1;editable=1;locked=0;connectable=1;" edge="1" parent="1" source="KfVdgGBA4cppGUbjS1bN-1" target="KfVdgGBA4cppGUbjS1bN-25">
          <mxGeometry width="100" relative="1" as="geometry">
            <mxPoint x="1979" y="13.439999999999998" as="sourcePoint" />
            <mxPoint x="2079" y="13.439999999999998" as="targetPoint" />
            <Array as="points">
              <mxPoint x="2189" y="-79.56" />
              <mxPoint x="2189" y="-40.56" />
            </Array>
          </mxGeometry>
        </mxCell>
        <mxCell id="ogD9vOvKOTsoDzAMYJkQ-34" value="&lt;span style=&quot;font-family: SFMono-Regular, Menlo, Consolas, &amp;quot;PT Mono&amp;quot;, &amp;quot;Liberation Mono&amp;quot;, Courier, monospace; font-size: 10.2px; font-weight: 600; background-color: rgb(248, 248, 247);&quot;&gt;daily-flights/&lt;/span&gt;" style="edgeLabel;html=1;align=center;verticalAlign=middle;resizable=1;points=[];movable=1;rotatable=1;deletable=1;editable=1;locked=0;connectable=1;" connectable="0" vertex="1" parent="KfVdgGBA4cppGUbjS1bN-27">
          <mxGeometry x="0.4257" relative="1" as="geometry">
            <mxPoint as="offset" />
          </mxGeometry>
        </mxCell>
        <mxCell id="KfVdgGBA4cppGUbjS1bN-29" value="" style="edgeStyle=orthogonalEdgeStyle;htmDepartman barl=1;endArrow=open;elbow=vertical;startArrow=none;startFill=0;endFill=0;strokeColor=#545B64;rounded=1;exitX=1;exitY=0.5;exitDx=0;exitDy=0;exitPerimeter=0;flowAnimation=0;curved=0;movable=1;resizable=1;rotatable=1;deletable=1;editable=1;locked=0;connectable=1;" edge="1" parent="1" source="KfVdgGBA4cppGUbjS1bN-1" target="KfVdgGBA4cppGUbjS1bN-28">
          <mxGeometry width="100" relative="1" as="geometry">
            <mxPoint x="2137" y="-69.56" as="sourcePoint" />
            <mxPoint x="2219" y="-112.56" as="targetPoint" />
          </mxGeometry>
        </mxCell>
        <mxCell id="ogD9vOvKOTsoDzAMYJkQ-33" value="&lt;span style=&quot;font-family: SFMono-Regular, Menlo, Consolas, &amp;quot;PT Mono&amp;quot;, &amp;quot;Liberation Mono&amp;quot;, Courier, monospace; font-size: 10.2px; font-weight: 600; background-color: rgb(248, 248, 247);&quot;&gt;dim/&lt;/span&gt;" style="edgeLabel;html=1;align=center;verticalAlign=middle;resizable=1;points=[];movable=1;rotatable=1;deletable=1;editable=1;locked=0;connectable=1;" connectable="0" vertex="1" parent="KfVdgGBA4cppGUbjS1bN-29">
          <mxGeometry x="0.4285" y="1" relative="1" as="geometry">
            <mxPoint as="offset" />
          </mxGeometry>
        </mxCell>
        <mxCell id="ogD9vOvKOTsoDzAMYJkQ-40" value="" style="edgeStyle=orthogonalEdgeStyle;html=1;endArrow=open;elbow=vertical;startArrow=none;endFill=0;strokeColor=#545B64;rounded=1;curved=0;dashed=1;strokeWidth=2;movable=1;resizable=1;rotatable=1;deletable=1;editable=1;locked=0;connectable=1;" edge="1" parent="1" source="KfVdgGBA4cppGUbjS1bN-25" target="KfVdgGBA4cppGUbjS1bN-3">
          <mxGeometry width="100" relative="1" as="geometry">
            <mxPoint x="2349" y="-36.56" as="sourcePoint" />
            <mxPoint x="2369" y="43.44" as="targetPoint" />
            <Array as="points">
              <mxPoint x="2359" y="-43.079999999999984" />
              <mxPoint x="2359" y="46.920000000000016" />
            </Array>
          </mxGeometry>
        </mxCell>
        <mxCell id="ogD9vOvKOTsoDzAMYJkQ-41" value="&lt;span class=&quot;notion-enable-hover&quot; spellcheck=&quot;false&quot; data-token-index=&quot;0&quot; style=&quot;font-family: SFMono-Regular, Menlo, Consolas, &amp;quot;PT Mono&amp;quot;, &amp;quot;Liberation Mono&amp;quot;, Courier, monospace; line-height: normal; background-image: initial; background-position: initial; background-size: initial; background-repeat: initial; background-attachment: initial; background-origin: initial; background-clip: initial; border-radius: 4px; font-size: 85%; padding: 0.2em 0.4em; font-weight: 600; isolation: auto; fill: rgb(51, 126, 169);&quot;&gt;&lt;font style=&quot;color: rgb(0, 0, 0);&quot;&gt;airports-dim-crawler&lt;/font&gt;&lt;/span&gt;" style="sketch=0;outlineConnect=0;fontColor=#232F3E;gradientColor=none;fillColor=#8C4FFF;strokeColor=none;dashed=0;verticalLabelPosition=bottom;verticalAlign=top;align=center;html=1;fontSize=12;fontStyle=0;aspect=fixed;pointerEvents=1;shape=mxgraph.aws4.glue_crawlers;spacingTop=-8;movable=1;resizable=1;rotatable=1;deletable=1;editable=1;locked=0;connectable=1;" vertex="1" parent="1">
          <mxGeometry x="2596.9999999999995" y="-326" width="55" height="55" as="geometry" />
        </mxCell>
        <mxCell id="ogD9vOvKOTsoDzAMYJkQ-46" value="&lt;span class=&quot;notion-enable-hover&quot; spellcheck=&quot;false&quot; data-token-index=&quot;0&quot; style=&quot;font-family: SFMono-Regular, Menlo, Consolas, &amp;quot;PT Mono&amp;quot;, &amp;quot;Liberation Mono&amp;quot;, Courier, monospace; line-height: normal; background-image: initial; background-position: initial; background-size: initial; background-repeat: initial; background-attachment: initial; background-origin: initial; background-clip: initial; border-radius: 4px; font-size: 85%; padding: 0.2em 0.4em; font-weight: 600; isolation: auto; fill: rgb(51, 126, 169);&quot;&gt;&lt;font style=&quot;color: rgb(0, 0, 0);&quot;&gt;daily-flights-fact-crawler&lt;/font&gt;&lt;/span&gt;" style="sketch=0;outlineConnect=0;fontColor=#232F3E;gradientColor=none;fillColor=#8C4FFF;strokeColor=none;dashed=0;verticalLabelPosition=bottom;verticalAlign=top;align=center;html=1;fontSize=12;fontStyle=0;aspect=fixed;pointerEvents=1;shape=mxgraph.aws4.glue_crawlers;spacingTop=-8;movable=1;resizable=1;rotatable=1;deletable=1;editable=1;locked=0;connectable=1;" vertex="1" parent="1">
          <mxGeometry x="2817" y="-326" width="55" height="55" as="geometry" />
        </mxCell>
        <mxCell id="ogD9vOvKOTsoDzAMYJkQ-48" value="" style="edgeStyle=orthogonalEdgeStyle;html=1;endArrow=none;elbow=vertical;startArrow=openThin;startFill=0;strokeColor=#545B64;rounded=1;curved=0;movable=1;resizable=1;rotatable=1;deletable=1;editable=1;locked=0;connectable=1;" edge="1" parent="1" source="KfVdgGBA4cppGUbjS1bN-39" target="KfVdgGBA4cppGUbjS1bN-3">
          <mxGeometry width="100" relative="1" as="geometry">
            <mxPoint x="2540" y="97.44" as="sourcePoint" />
            <mxPoint x="2265" y="50.31999999999988" as="targetPoint" />
            <Array as="points">
              <mxPoint x="2359" y="46.920000000000016" />
            </Array>
          </mxGeometry>
        </mxCell>
        <mxCell id="ogD9vOvKOTsoDzAMYJkQ-51" value="" style="edgeStyle=orthogonalEdgeStyle;html=1;endArrow=none;elbow=vertical;startArrow=openThin;startFill=0;strokeColor=#545B64;rounded=1;curved=0;dashed=1;exitX=0.5;exitY=0;exitDx=0;exitDy=0;strokeWidth=2;movable=1;resizable=1;rotatable=1;deletable=1;editable=1;locked=0;connectable=1;" edge="1" parent="1" source="KfVdgGBA4cppGUbjS1bN-18" target="KfVdgGBA4cppGUbjS1bN-110">
          <mxGeometry width="100" relative="1" as="geometry">
            <mxPoint x="1908.6799999999998" y="-235.3046399999999" as="sourcePoint" />
            <mxPoint x="1909.011494252874" y="-445.56068321566846" as="targetPoint" />
            <Array as="points" />
          </mxGeometry>
        </mxCell>
        <mxCell id="ogD9vOvKOTsoDzAMYJkQ-52" value="" style="edgeStyle=orthogonalEdgeStyle;html=1;endArrow=classic;elbow=vertical;startArrow=none;endFill=1;strokeColor=#545B64;rounded=1;curved=0;startFill=0;dashed=1;strokeWidth=2;entryX=0.545;entryY=0.006;entryDx=0;entryDy=0;entryPerimeter=0;movable=1;resizable=1;rotatable=1;deletable=1;editable=1;locked=0;connectable=1;" edge="1" parent="1" target="KfVdgGBA4cppGUbjS1bN-23">
          <mxGeometry width="100" relative="1" as="geometry">
            <mxPoint x="2192.82" y="-561" as="sourcePoint" />
            <mxPoint x="2192.82" y="-156" as="targetPoint" />
            <Array as="points" />
          </mxGeometry>
        </mxCell>
        <mxCell id="HszNG5Km89kw8XTW4GH8-2" value="" style="group;movable=1;resizable=1;rotatable=1;deletable=1;editable=1;locked=0;connectable=1;" connectable="0" vertex="1" parent="1">
          <mxGeometry x="2429.99929113924" y="-219.07999999999998" width="733.8307088607598" height="240" as="geometry" />
        </mxCell>
        <mxCell id="HIjt016Xb4Ibgi4CmHj3-1" value="&lt;font face=&quot;SFMono-Regular, Menlo, Consolas, PT Mono, Liberation Mono, Courier, monospace&quot; color=&quot;#000000&quot;&gt;&lt;span style=&quot;caret-color: rgb(0, 0, 0);&quot;&gt;&lt;span style=&quot;caret-color: rgb(0, 0, 0); font-size: 10.2px; font-weight: 600; text-align: center; white-space: nowrap;&quot;&gt;united-flight-ingestion&lt;span style=&quot;white-space: pre;&quot;&gt;&#x9;&lt;span style=&quot;white-space: pre;&quot;&gt;&#x9;&lt;/span&gt;&lt;/span&gt;&lt;/span&gt;&lt;b&gt;Glue Job Workflow&lt;/b&gt;&lt;/span&gt;&lt;/font&gt;" style="sketch=0;outlineConnect=0;gradientColor=none;html=1;whiteSpace=wrap;fontSize=12;fontStyle=0;shape=mxgraph.aws4.group;grIcon=mxgraph.aws4.group_aws_step_functions_workflow;strokeColor=#B266FF;fillColor=default;verticalAlign=top;align=left;spacingLeft=30;fontColor=#545B64;dashed=0;movable=1;resizable=1;rotatable=1;deletable=1;editable=1;locked=0;connectable=1;" vertex="1" parent="HszNG5Km89kw8XTW4GH8-2">
          <mxGeometry x="1" width="639" height="240" as="geometry" />
        </mxCell>
        <mxCell id="ogD9vOvKOTsoDzAMYJkQ-58" style="entryX=0;entryY=0.287;entryDx=0;entryDy=0;entryPerimeter=0;endArrow=classicThin;endFill=1;movable=1;resizable=1;rotatable=1;deletable=1;editable=1;locked=0;connectable=1;" edge="1" parent="HszNG5Km89kw8XTW4GH8-2" source="UVq4S3CGadxjuRh0ZdJN-5" target="UVq4S3CGadxjuRh0ZdJN-12">
          <mxGeometry relative="1" as="geometry">
            <mxPoint x="1067.8307088607598" y="-56.48000000000002" as="sourcePoint" />
            <mxPoint x="1107.8307088607598" y="-66.48000000000002" as="targetPoint" />
          </mxGeometry>
        </mxCell>
        <mxCell id="ogD9vOvKOTsoDzAMYJkQ-59" style="movable=1;resizable=1;rotatable=1;deletable=1;editable=1;locked=0;connectable=1;" edge="1" parent="HszNG5Km89kw8XTW4GH8-2" source="UVq4S3CGadxjuRh0ZdJN-4" target="UVq4S3CGadxjuRh0ZdJN-12">
          <mxGeometry relative="1" as="geometry">
            <mxPoint x="1139.6488906789418" y="-226.48000000000002" as="targetPoint" />
          </mxGeometry>
        </mxCell>
        <mxCell id="ogD9vOvKOTsoDzAMYJkQ-61" style="movable=1;resizable=1;rotatable=1;deletable=1;editable=1;locked=0;connectable=1;" edge="1" parent="HszNG5Km89kw8XTW4GH8-2" source="UVq4S3CGadxjuRh0ZdJN-9" target="UVq4S3CGadxjuRh0ZdJN-35">
          <mxGeometry relative="1" as="geometry">
            <mxPoint x="382.83070886075984" y="176.02" as="sourcePoint" />
            <mxPoint x="452.83070886075984" y="180" as="targetPoint" />
          </mxGeometry>
        </mxCell>
        <mxCell id="ogD9vOvKOTsoDzAMYJkQ-63" style="movable=1;resizable=1;rotatable=1;deletable=1;editable=1;locked=0;connectable=1;" edge="1" parent="HszNG5Km89kw8XTW4GH8-2" source="UVq4S3CGadxjuRh0ZdJN-35">
          <mxGeometry relative="1" as="geometry">
            <mxPoint x="472.83070886075984" y="100" as="targetPoint" />
          </mxGeometry>
        </mxCell>
        <mxCell id="ogD9vOvKOTsoDzAMYJkQ-64" style="rounded=0;curved=1;entryX=0;entryY=0.443;entryDx=0;entryDy=0;entryPerimeter=0;movable=1;resizable=1;rotatable=1;deletable=1;editable=1;locked=0;connectable=1;" edge="1" parent="HszNG5Km89kw8XTW4GH8-2" source="UVq4S3CGadxjuRh0ZdJN-4">
          <mxGeometry relative="1" as="geometry">
            <mxPoint x="146.14889067894183" y="81.72000000000003" as="sourcePoint" />
            <mxPoint x="447.83070886075984" y="81.73459016393446" as="targetPoint" />
          </mxGeometry>
        </mxCell>
        <mxCell id="ogD9vOvKOTsoDzAMYJkQ-66" style="movable=1;resizable=1;rotatable=1;deletable=1;editable=1;locked=0;connectable=1;" edge="1" parent="HszNG5Km89kw8XTW4GH8-2" source="UVq4S3CGadxjuRh0ZdJN-17" target="UVq4S3CGadxjuRh0ZdJN-33">
          <mxGeometry relative="1" as="geometry">
            <mxPoint x="1562.8307088607598" y="-576.48" as="sourcePoint" />
          </mxGeometry>
        </mxCell>
        <mxCell id="UVq4S3CGadxjuRh0ZdJN-4" value="&lt;div style=&quot;caret-color: rgb(0, 0, 0); color: rgb(0, 0, 0);&quot;&gt;&lt;span style=&quot;text-align: start; white-space: normal; font-family: SFMono-Regular, Menlo, Consolas, &amp;quot;PT Mono&amp;quot;, &amp;quot;Liberation Mono&amp;quot;, Courier, monospace; line-height: normal; background-image: none; background-position: 0% 0%; background-size: auto; background-repeat: repeat; background-attachment: scroll; background-origin: padding-box; background-clip: border-box; background-color: light-dark(#ffffff, var(--ge-dark-color, #121212)); border-radius: 4px; padding: 0.2em 0.4em; font-weight: 600; isolation: auto; fill: rgb(51, 126, 169); color: rgb(0, 0, 0);&quot; class=&quot;notion-enable-hover&quot; spellcheck=&quot;false&quot; data-token-index=&quot;0&quot;&gt;&lt;font style=&quot;font-size: 10px;&quot;&gt;united_db_airlines_airports_dim&lt;/font&gt;&lt;/span&gt;&lt;/div&gt;" style="sketch=0;outlineConnect=0;fontColor=#232F3E;gradientColor=none;strokeColor=none;fillColor=#8C4FFF;dashed=0;verticalLabelPosition=bottom;verticalAlign=top;align=center;html=1;fontSize=12;fontStyle=0;aspect=fixed;shape=mxgraph.aws4.glue_data_catalog;resIcon=mxgraph.aws4.table;spacing=0;spacingTop=0;pointerEvents=1;movable=1;resizable=1;rotatable=1;deletable=1;editable=1;locked=0;connectable=1;" vertex="1" parent="HszNG5Km89kw8XTW4GH8-2">
          <mxGeometry x="167.83070886075984" y="58.08000000000002" width="50" height="50" as="geometry" />
        </mxCell>
        <mxCell id="UVq4S3CGadxjuRh0ZdJN-12" value="" style="group;movable=1;resizable=1;rotatable=1;deletable=1;editable=1;locked=0;connectable=1;" connectable="0" vertex="1" parent="HszNG5Km89kw8XTW4GH8-2">
          <mxGeometry x="300.83070886075984" y="158" width="90" height="60" as="geometry" />
        </mxCell>
        <mxCell id="UVq4S3CGadxjuRh0ZdJN-14" value="" style="group;movable=1;resizable=1;rotatable=1;deletable=1;editable=1;locked=0;connectable=1;" connectable="0" vertex="1" parent="UVq4S3CGadxjuRh0ZdJN-12">
          <mxGeometry width="60" height="59.016393442622956" as="geometry" />
        </mxCell>
        <mxCell id="UVq4S3CGadxjuRh0ZdJN-8" value="&lt;pre&gt;&lt;span style=&quot;font-family: SFMono-Regular, Menlo, Consolas, &amp;quot;PT Mono&amp;quot;, &amp;quot;Liberation Mono&amp;quot;, Courier, monospace; font-weight: 600; text-align: start;&quot;&gt;&lt;font style=&quot;font-size: 7px;&quot;&gt;Join (originairportid = airport_id)&lt;/font&gt;&lt;/span&gt;&lt;/pre&gt;" style="ellipse;whiteSpace=wrap;html=1;aspect=fixed;fillColor=#dae8fc;strokeColor=#000000;spacingTop=71;spacingRight=-26;movable=1;resizable=1;rotatable=1;deletable=1;editable=1;locked=0;connectable=1;" vertex="1" parent="UVq4S3CGadxjuRh0ZdJN-14">
          <mxGeometry width="39.34426229508198" height="39.34426229508198" as="geometry" />
        </mxCell>
        <mxCell id="UVq4S3CGadxjuRh0ZdJN-9" value="" style="ellipse;whiteSpace=wrap;html=1;aspect=fixed;fillColor=none;movable=1;resizable=1;rotatable=1;deletable=1;editable=1;locked=0;connectable=1;" vertex="1" parent="UVq4S3CGadxjuRh0ZdJN-14">
          <mxGeometry x="20.655737704918018" width="39.34426229508198" height="39.34426229508198" as="geometry" />
        </mxCell>
        <mxCell id="UVq4S3CGadxjuRh0ZdJN-15" value="" style="group;movable=1;resizable=1;rotatable=1;deletable=1;editable=1;locked=0;connectable=1;" connectable="0" vertex="1" parent="HszNG5Km89kw8XTW4GH8-2">
          <mxGeometry x="447.83070886075984" y="64.51999999999998" width="50" height="60" as="geometry" />
        </mxCell>
        <mxCell id="UVq4S3CGadxjuRh0ZdJN-16" value="&lt;pre&gt;&lt;span style=&quot;font-family: SFMono-Regular, Menlo, Consolas, &amp;quot;PT Mono&amp;quot;, &amp;quot;Liberation Mono&amp;quot;, Courier, monospace; font-weight: 600; text-align: start; background-color: light-dark(#ffffff, var(--ge-dark-color, #121212));&quot;&gt;&lt;font style=&quot;font-size: 7px;&quot;&gt;Join (destrportid = airport_id)&lt;/font&gt;&lt;/span&gt;&lt;/pre&gt;" style="ellipse;whiteSpace=wrap;html=1;aspect=fixed;fillColor=#dae8fc;strokeColor=#000000;spacingTop=-50;spacingRight=-26;movable=1;resizable=1;rotatable=1;deletable=1;editable=1;locked=0;connectable=1;" vertex="1" parent="UVq4S3CGadxjuRh0ZdJN-15">
          <mxGeometry width="32.786885245901644" height="32.786885245901644" as="geometry" />
        </mxCell>
        <mxCell id="UVq4S3CGadxjuRh0ZdJN-17" value="" style="ellipse;whiteSpace=wrap;html=1;aspect=fixed;fillColor=none;movable=1;resizable=1;rotatable=1;deletable=1;editable=1;locked=0;connectable=1;" vertex="1" parent="UVq4S3CGadxjuRh0ZdJN-15">
          <mxGeometry x="17.213114754098342" width="32.786885245901644" height="32.786885245901644" as="geometry" />
        </mxCell>
        <mxCell id="UVq4S3CGadxjuRh0ZdJN-35" value="&lt;pre style=&quot;text-align: start; caret-color: rgb(0, 0, 0); color: rgb(0, 0, 0);&quot;&gt;&lt;font size=&quot;1&quot; face=&quot;SFMono-Regular, Menlo, Consolas, PT Mono, Liberation Mono, Courier, monospace&quot; color=&quot;#000000&quot;&gt;&lt;span style=&quot;caret-color: rgb(0, 0, 0); white-space: normal;&quot;&gt;&lt;b&gt;transform&lt;/b&gt;&lt;/span&gt;&lt;/font&gt;&lt;/pre&gt;" style="sketch=0;outlineConnect=0;fontColor=#232F3E;gradientColor=none;strokeColor=#232F3E;fillColor=#ffffff;dashed=0;verticalLabelPosition=bottom;verticalAlign=top;align=center;html=1;fontSize=12;fontStyle=0;aspect=fixed;shape=mxgraph.aws4.resourceIcon;resIcon=mxgraph.aws4.change_set;spacingTop=-21;movable=1;resizable=1;rotatable=1;deletable=1;editable=1;locked=0;connectable=1;" vertex="1" parent="HszNG5Km89kw8XTW4GH8-2">
          <mxGeometry x="444.83070886075984" y="149.51999999999998" width="56" height="56" as="geometry" />
        </mxCell>
        <mxCell id="UVq4S3CGadxjuRh0ZdJN-5" value="&lt;span style=&quot;white-space: normal; caret-color: rgb(0, 0, 0); color: rgb(0, 0, 0); font-family: SFMono-Regular, Menlo, Consolas, &amp;quot;PT Mono&amp;quot;, &amp;quot;Liberation Mono&amp;quot;, Courier, monospace; font-weight: 600; text-align: start;&quot;&gt;&lt;font style=&quot;font-size: 10px;&quot;&gt;filtering&lt;/font&gt;&lt;/span&gt;" style="sketch=0;outlineConnect=0;fontColor=#232F3E;gradientColor=none;strokeColor=#232F3E;fillColor=none;dashed=0;verticalLabelPosition=bottom;verticalAlign=top;align=center;html=1;fontSize=12;fontStyle=0;aspect=fixed;shape=mxgraph.aws4.resourceIcon;resIcon=mxgraph.aws4.filtering_rule;spacingTop=-10;movable=1;resizable=1;rotatable=1;deletable=1;editable=1;locked=0;connectable=1;" vertex="1" parent="HszNG5Km89kw8XTW4GH8-2">
          <mxGeometry x="162.83070886075984" y="145" width="60" height="60" as="geometry" />
        </mxCell>
        <mxCell id="UVq4S3CGadxjuRh0ZdJN-3" value="&lt;span style=&quot;caret-color: rgb(0, 0, 0); color: rgb(0, 0, 0); font-family: SFMono-Regular, Menlo, Consolas, &amp;quot;PT Mono&amp;quot;, &amp;quot;Liberation Mono&amp;quot;, Courier, monospace; font-weight: 600; text-align: start; white-space: normal;&quot;&gt;&lt;font style=&quot;font-size: 10px;&quot;&gt;raw_daily_flights&lt;/font&gt;&lt;/span&gt;&lt;div&gt;&lt;span style=&quot;caret-color: rgb(0, 0, 0); color: rgb(0, 0, 0); font-family: SFMono-Regular, Menlo, Consolas, &amp;quot;PT Mono&amp;quot;, &amp;quot;Liberation Mono&amp;quot;, Courier, monospace; font-weight: 600; text-align: start; white-space: normal;&quot;&gt;&lt;font style=&quot;font-size: 10px;&quot;&gt;&lt;br&gt;&lt;/font&gt;&lt;/span&gt;&lt;/div&gt;" style="sketch=0;outlineConnect=0;fontColor=#232F3E;gradientColor=none;strokeColor=none;fillColor=#8C4FFF;dashed=0;verticalLabelPosition=bottom;verticalAlign=top;align=center;html=1;fontSize=12;fontStyle=0;aspect=fixed;shape=mxgraph.aws4.glue_data_catalog;resIcon=mxgraph.aws4.table;spacing=0;spacingTop=0;pointerEvents=1;movable=1;resizable=1;rotatable=1;deletable=1;editable=1;locked=0;connectable=1;" vertex="1" parent="HszNG5Km89kw8XTW4GH8-2">
          <mxGeometry x="32.01070886075968" y="150" width="50" height="50" as="geometry" />
        </mxCell>
        <mxCell id="ogD9vOvKOTsoDzAMYJkQ-56" style="endArrow=classicThin;endFill=1;movable=1;resizable=1;rotatable=1;deletable=1;editable=1;locked=0;connectable=1;" edge="1" parent="HszNG5Km89kw8XTW4GH8-2" source="UVq4S3CGadxjuRh0ZdJN-3" target="UVq4S3CGadxjuRh0ZdJN-5">
          <mxGeometry relative="1" as="geometry">
            <mxPoint x="989.8307088607598" y="-45.57677419354877" as="targetPoint" />
          </mxGeometry>
        </mxCell>
        <mxCell id="UVq4S3CGadxjuRh0ZdJN-33" value="&lt;pre style=&quot;caret-color: rgb(0, 0, 0); color: rgb(0, 0, 0);&quot;&gt;&lt;pre style=&quot;text-align: start; caret-color: rgb(0, 0, 0); color: rgb(0, 0, 0);&quot;&gt;&lt;font size=&quot;1&quot; face=&quot;SFMono-Regular, Menlo, Consolas, PT Mono, Liberation Mono, Courier, monospace&quot;&gt;&lt;span style=&quot;white-space: normal; caret-color: rgb(0, 0, 0);&quot;&gt;&lt;b&gt;transform&lt;/b&gt;&lt;/span&gt;&lt;/font&gt;&lt;/pre&gt;&lt;/pre&gt;" style="sketch=0;outlineConnect=0;fontColor=#232F3E;gradientColor=none;strokeColor=#232F3E;fillColor=#ffffff;dashed=0;verticalLabelPosition=bottom;verticalAlign=top;align=center;html=1;fontSize=12;fontStyle=0;aspect=fixed;shape=mxgraph.aws4.resourceIcon;resIcon=mxgraph.aws4.change_set;spacingTop=-20;movable=1;resizable=1;rotatable=1;deletable=1;editable=1;locked=0;connectable=1;" vertex="1" parent="HszNG5Km89kw8XTW4GH8-2">
          <mxGeometry x="549.0007088607598" y="149.52000000000004" width="56" height="56" as="geometry" />
        </mxCell>
        <mxCell id="HIjt016Xb4Ibgi4CmHj3-2" value="" style="sketch=0;points=[[0,0,0],[0.25,0,0],[0.5,0,0],[0.75,0,0],[1,0,0],[0,1,0],[0.25,1,0],[0.5,1,0],[0.75,1,0],[1,1,0],[0,0.25,0],[0,0.5,0],[0,0.75,0],[1,0.25,0],[1,0.5,0],[1,0.75,0]];outlineConnect=0;fontColor=#232F3E;fillColor=#8C4FFF;strokeColor=#ffffff;dashed=0;verticalLabelPosition=bottom;verticalAlign=top;align=center;html=1;fontSize=12;fontStyle=0;aspect=fixed;shape=mxgraph.aws4.resourceIcon;resIcon=mxgraph.aws4.glue;movable=1;resizable=1;rotatable=1;deletable=1;editable=1;locked=0;connectable=1;" vertex="1" parent="HszNG5Km89kw8XTW4GH8-2">
          <mxGeometry width="28.21518987341772" height="28.21518987341772" as="geometry" />
        </mxCell>
        <mxCell id="HszNG5Km89kw8XTW4GH8-8" value="" style="edgeStyle=orthogonalEdgeStyle;html=1;endArrow=openThin;elbow=vertical;startArrow=none;endFill=0;strokeColor=#545B64;rounded=1;curved=0;movable=1;resizable=1;rotatable=1;deletable=1;editable=1;locked=0;connectable=1;" edge="1" parent="1" source="ogD9vOvKOTsoDzAMYJkQ-41" target="UVq4S3CGadxjuRh0ZdJN-4">
          <mxGeometry width="100" relative="1" as="geometry">
            <mxPoint x="2618.9696969696975" y="-271" as="sourcePoint" />
            <mxPoint x="2623.030303030303" y="-161" as="targetPoint" />
            <Array as="points">
              <mxPoint x="2623" y="-251" />
              <mxPoint x="2623" y="-251" />
            </Array>
          </mxGeometry>
        </mxCell>
        <mxCell id="HszNG5Km89kw8XTW4GH8-9" value="" style="edgeStyle=orthogonalEdgeStyle;html=1;endArrow=openThin;elbow=vertical;startArrow=none;endFill=0;strokeColor=#545B64;rounded=1;curved=0;dashed=1;strokeWidth=2;movable=1;resizable=1;rotatable=1;deletable=1;editable=1;locked=0;connectable=1;" edge="1" parent="1" source="ogD9vOvKOTsoDzAMYJkQ-12" target="HIjt016Xb4Ibgi4CmHj3-1">
          <mxGeometry width="100" relative="1" as="geometry">
            <mxPoint x="2349" y="-291" as="sourcePoint" />
            <mxPoint x="2351" y="-251" as="targetPoint" />
            <Array as="points">
              <mxPoint x="2351" y="-201" />
            </Array>
          </mxGeometry>
        </mxCell>
        <mxCell id="UVq4S3CGadxjuRh0ZdJN-27" value="" style="html=1;endArrow=openThin;elbow=vertical;startArrow=none;endFill=0;strokeColor=#009900;rounded=1;labelBackgroundColor=none;edgeStyle=orthogonalEdgeStyle;curved=0;strokeWidth=3;movable=1;resizable=1;rotatable=1;deletable=1;editable=1;locked=0;connectable=1;flowAnimation=1;" edge="1" parent="1" source="UVq4S3CGadxjuRh0ZdJN-33" target="ogD9vOvKOTsoDzAMYJkQ-14">
          <mxGeometry width="100" relative="1" as="geometry">
            <mxPoint x="3006" y="-154.55999999999995" as="sourcePoint" />
            <mxPoint x="3030" y="-331" as="targetPoint" />
            <Array as="points">
              <mxPoint x="3006" y="-494" />
            </Array>
          </mxGeometry>
        </mxCell>
        <mxCell id="HszNG5Km89kw8XTW4GH8-13" value="" style="group;movable=1;resizable=1;rotatable=1;deletable=1;editable=1;locked=0;connectable=1;" connectable="0" vertex="1" parent="1">
          <mxGeometry x="2215" y="91.44" width="864" height="230.00000000000006" as="geometry" />
        </mxCell>
        <mxCell id="KfVdgGBA4cppGUbjS1bN-102" value="" style="group;fillColor=default;spacingBottom=-4;spacingTop=0;labelBackgroundColor=none;fontColor=#FFFFFF;container=0;movable=1;resizable=1;rotatable=1;deletable=1;editable=1;locked=0;connectable=1;" connectable="0" vertex="1" parent="HszNG5Km89kw8XTW4GH8-13">
          <mxGeometry width="864" height="230" as="geometry" />
        </mxCell>
        <mxCell id="KfVdgGBA4cppGUbjS1bN-39" value="&lt;span style=&quot;color: rgb(0, 0, 0); font-family: SFMono-Regular, Menlo, Consolas, &amp;quot;PT Mono&amp;quot;, &amp;quot;Liberation Mono&amp;quot;, Courier, monospace; font-size: 10.2px; font-weight: 600;&quot;&gt;united-data-pipeline&amp;nbsp; &amp;nbsp; &amp;nbsp; Step Function Workflow&lt;/span&gt;" style="points=[[0,0],[0.25,0],[0.5,0],[0.75,0],[1,0],[1,0.25],[1,0.5],[1,0.75],[1,1],[0.75,1],[0.5,1],[0.25,1],[0,1],[0,0.75],[0,0.5],[0,0.25]];outlineConnect=0;gradientColor=none;html=1;whiteSpace=wrap;fontSize=12;fontStyle=0;container=0;pointerEvents=0;collapsible=0;recursiveResize=0;shape=mxgraph.aws4.group;grIcon=mxgraph.aws4.group_aws_step_functions_workflow;strokeColor=#CD2264;fillColor=none;verticalAlign=top;align=left;spacingLeft=30;fontColor=#CD2264;dashed=0;movable=1;resizable=1;rotatable=1;deletable=1;editable=1;locked=0;connectable=1;" vertex="1" parent="HszNG5Km89kw8XTW4GH8-13">
          <mxGeometry width="860" height="230" as="geometry" />
        </mxCell>
        <mxCell id="KfVdgGBA4cppGUbjS1bN-40" value="&lt;span class=&quot;notion-enable-hover&quot; spellcheck=&quot;false&quot; data-token-index=&quot;0&quot; style=&quot;font-family: SFMono-Regular, Menlo, Consolas, &amp;quot;PT Mono&amp;quot;, &amp;quot;Liberation Mono&amp;quot;, Courier, monospace; line-height: normal; background-image: initial; background-position: initial; background-size: initial; background-repeat: initial; background-attachment: initial; background-origin: initial; background-clip: initial; border-radius: 4px; font-size: 85%; padding: 0.2em 0.4em; font-weight: 600; isolation: auto; fill: rgb(51, 126, 169);&quot;&gt;&lt;font style=&quot;color: rgb(0, 0, 0);&quot;&gt;raw-daily-flights-crawler&lt;/font&gt;&lt;/span&gt;" style="sketch=0;outlineConnect=0;fontColor=#232F3E;gradientColor=none;fillColor=#8C4FFF;strokeColor=none;dashed=0;verticalLabelPosition=bottom;verticalAlign=top;align=center;html=1;fontSize=12;fontStyle=0;aspect=fixed;pointerEvents=1;shape=mxgraph.aws4.glue_crawlers;container=0;movable=1;resizable=1;rotatable=1;deletable=1;editable=1;locked=0;connectable=1;" vertex="1" parent="HszNG5Km89kw8XTW4GH8-13">
          <mxGeometry x="121" y="85" width="50" height="50" as="geometry" />
        </mxCell>
        <mxCell id="KfVdgGBA4cppGUbjS1bN-41" value="&lt;span class=&quot;notion-enable-hover&quot; spellcheck=&quot;false&quot; data-token-index=&quot;0&quot; style=&quot;font-family: SFMono-Regular, Menlo, Consolas, &amp;quot;PT Mono&amp;quot;, &amp;quot;Liberation Mono&amp;quot;, Courier, monospace; line-height: normal; background-image: initial; background-position: initial; background-size: initial; background-repeat: initial; background-attachment: initial; background-origin: initial; background-clip: initial; border-radius: 4px; font-size: 85%; padding: 0.2em 0.4em; font-weight: 600; isolation: auto; fill: rgb(51, 126, 169);&quot;&gt;&lt;font style=&quot;color: rgb(0, 0, 0);&quot;&gt;united-flight-ingestion&lt;/font&gt;&lt;/span&gt;" style="sketch=0;points=[[0,0,0],[0.25,0,0],[0.5,0,0],[0.75,0,0],[1,0,0],[0,1,0],[0.25,1,0],[0.5,1,0],[0.75,1,0],[1,1,0],[0,0.25,0],[0,0.5,0],[0,0.75,0],[1,0.25,0],[1,0.5,0],[1,0.75,0]];outlineConnect=0;fontColor=#232F3E;fillColor=#8C4FFF;strokeColor=#ffffff;dashed=0;verticalLabelPosition=bottom;verticalAlign=top;align=center;html=1;fontSize=12;fontStyle=0;aspect=fixed;shape=mxgraph.aws4.resourceIcon;resIcon=mxgraph.aws4.glue;container=0;movable=1;resizable=1;rotatable=1;deletable=1;editable=1;locked=0;connectable=1;" vertex="1" parent="HszNG5Km89kw8XTW4GH8-13">
          <mxGeometry x="420" y="113.5" width="50" height="50" as="geometry" />
        </mxCell>
        <mxCell id="KfVdgGBA4cppGUbjS1bN-43" value="&lt;span style=&quot;font-family: SFMono-Regular, Menlo, Consolas, &amp;quot;PT Mono&amp;quot;, &amp;quot;Liberation Mono&amp;quot;, Courier, monospace; font-weight: 600; text-align: left;&quot;&gt;&lt;font&gt;Start&lt;/font&gt;&lt;/span&gt;" style="strokeWidth=2;html=1;shape=mxgraph.flowchart.start_2;whiteSpace=wrap;fillColor=#fff2cc;strokeColor=#d6b656;container=0;movable=1;resizable=1;rotatable=1;deletable=1;editable=1;locked=0;connectable=1;" vertex="1" parent="HszNG5Km89kw8XTW4GH8-13">
          <mxGeometry x="10" y="90" width="40" height="40" as="geometry" />
        </mxCell>
        <mxCell id="KfVdgGBA4cppGUbjS1bN-44" value="" style="edgeStyle=orthogonalEdgeStyle;html=1;endArrow=open;elbow=vertical;startArrow=none;endFill=0;strokeColor=#545B64;rounded=1;curved=0;movable=1;resizable=1;rotatable=1;deletable=1;editable=1;locked=0;connectable=1;" edge="1" parent="HszNG5Km89kw8XTW4GH8-13" source="KfVdgGBA4cppGUbjS1bN-43" target="KfVdgGBA4cppGUbjS1bN-40">
          <mxGeometry width="100" relative="1" as="geometry">
            <mxPoint x="50" y="110" as="sourcePoint" />
            <mxPoint x="150" y="110" as="targetPoint" />
          </mxGeometry>
        </mxCell>
        <mxCell id="KfVdgGBA4cppGUbjS1bN-45" value="&lt;span style=&quot;font-family: SFMono-Regular, Menlo, Consolas, &amp;quot;PT Mono&amp;quot;, &amp;quot;Liberation Mono&amp;quot;, Courier, monospace; font-size: 10.2px; font-weight: 600;&quot;&gt;is_running?&lt;/span&gt;" style="html=1;dashed=0;whiteSpace=wrap;shape=mxgraph.dfd.start;align=center;verticalAlign=middle;spacingBottom=3;container=0;movable=1;resizable=1;rotatable=1;deletable=1;editable=1;locked=0;connectable=1;" vertex="1" parent="HszNG5Km89kw8XTW4GH8-13">
          <mxGeometry x="228" y="65" width="76" height="25" as="geometry" />
        </mxCell>
        <mxCell id="KfVdgGBA4cppGUbjS1bN-78" value="" style="edgeStyle=orthogonalEdgeStyle;html=1;endArrow=openThin;elbow=vertical;startArrow=none;endFill=0;strokeColor=#545B64;rounded=1;curved=0;movable=1;resizable=1;rotatable=1;deletable=1;editable=1;locked=0;connectable=1;" edge="1" parent="HszNG5Km89kw8XTW4GH8-13" source="KfVdgGBA4cppGUbjS1bN-40" target="KfVdgGBA4cppGUbjS1bN-45">
          <mxGeometry width="100" relative="1" as="geometry">
            <mxPoint x="170" y="110" as="sourcePoint" />
            <mxPoint x="270" y="110" as="targetPoint" />
          </mxGeometry>
        </mxCell>
        <mxCell id="KfVdgGBA4cppGUbjS1bN-79" value="&lt;span style=&quot;font-family: SFMono-Regular, Menlo, Consolas, &amp;quot;PT Mono&amp;quot;, &amp;quot;Liberation Mono&amp;quot;, Courier, monospace; font-size: 10.2px; font-weight: 600; text-wrap-mode: nowrap;&quot;&gt;Wait&lt;/span&gt;" style="strokeWidth=1;html=1;shape=mxgraph.flowchart.start_1;whiteSpace=wrap;spacingBottom=1;container=0;movable=1;resizable=1;rotatable=1;deletable=1;editable=1;locked=0;connectable=1;" vertex="1" parent="HszNG5Km89kw8XTW4GH8-13">
          <mxGeometry x="359" y="64" width="76" height="27.5" as="geometry" />
        </mxCell>
        <mxCell id="KfVdgGBA4cppGUbjS1bN-80" value="" style="edgeStyle=orthogonalEdgeStyle;html=1;endArrow=openThin;elbow=vertical;startArrow=none;endFill=0;strokeColor=#545B64;rounded=1;entryX=0;entryY=0.5;entryDx=0;entryDy=0;entryPerimeter=0;curved=0;movable=1;resizable=1;rotatable=1;deletable=1;editable=1;locked=0;connectable=1;" edge="1" parent="HszNG5Km89kw8XTW4GH8-13" source="KfVdgGBA4cppGUbjS1bN-45" target="KfVdgGBA4cppGUbjS1bN-79">
          <mxGeometry width="100" relative="1" as="geometry">
            <mxPoint x="304" y="77.5" as="sourcePoint" />
            <mxPoint x="340" y="80" as="targetPoint" />
          </mxGeometry>
        </mxCell>
        <mxCell id="KfVdgGBA4cppGUbjS1bN-83" value="" style="edgeStyle=orthogonalEdgeStyle;html=1;endArrow=openThin;elbow=vertical;startArrow=none;endFill=0;strokeColor=#545B64;rounded=0;exitX=0.521;exitY=-0.001;exitDx=0;exitDy=0;exitPerimeter=0;curved=1;flowAnimation=0;spacingTop=0;dashed=1;movable=1;resizable=1;rotatable=1;deletable=1;editable=1;locked=0;connectable=1;" edge="1" parent="HszNG5Km89kw8XTW4GH8-13" source="KfVdgGBA4cppGUbjS1bN-79" target="KfVdgGBA4cppGUbjS1bN-40">
          <mxGeometry width="100" relative="1" as="geometry">
            <mxPoint x="380" y="50" as="sourcePoint" />
            <mxPoint x="150" y="40" as="targetPoint" />
            <Array as="points">
              <mxPoint x="399" y="40" />
              <mxPoint x="164" y="40" />
            </Array>
          </mxGeometry>
        </mxCell>
        <mxCell id="KfVdgGBA4cppGUbjS1bN-86" value="&lt;span style=&quot;font-family: SFMono-Regular, Menlo, Consolas, &amp;quot;PT Mono&amp;quot;, &amp;quot;Liberation Mono&amp;quot;, Courier, monospace; font-size: 10.2px; font-weight: 600;&quot;&gt;Check the Status&lt;/span&gt;" style="edgeLabel;html=1;align=center;verticalAlign=middle;resizable=1;points=[];container=0;movable=1;rotatable=1;deletable=1;editable=1;locked=0;connectable=1;" connectable="0" vertex="1" parent="KfVdgGBA4cppGUbjS1bN-83">
          <mxGeometry x="-0.0307" y="-1" relative="1" as="geometry">
            <mxPoint as="offset" />
          </mxGeometry>
        </mxCell>
        <mxCell id="KfVdgGBA4cppGUbjS1bN-84" value="" style="edgeStyle=orthogonalEdgeStyle;html=1;endArrow=openThin;elbow=vertical;startArrow=none;endFill=0;strokeColor=#545B64;rounded=1;exitX=1;exitY=0.5;exitDx=0;exitDy=0;exitPerimeter=0;curved=0;movable=1;resizable=1;rotatable=1;deletable=1;editable=1;locked=0;connectable=1;" edge="1" parent="HszNG5Km89kw8XTW4GH8-13" source="KfVdgGBA4cppGUbjS1bN-45" target="KfVdgGBA4cppGUbjS1bN-41">
          <mxGeometry width="100" relative="1" as="geometry">
            <mxPoint x="230" y="130" as="sourcePoint" />
            <mxPoint x="330" y="140" as="targetPoint" />
            <Array as="points">
              <mxPoint x="330" y="77" />
              <mxPoint x="330" y="139" />
            </Array>
          </mxGeometry>
        </mxCell>
        <mxCell id="KfVdgGBA4cppGUbjS1bN-85" value="&lt;span style=&quot;font-family: SFMono-Regular, Menlo, Consolas, &amp;quot;PT Mono&amp;quot;, &amp;quot;Liberation Mono&amp;quot;, Courier, monospace; font-size: 10.2px; font-weight: 600; background-color: rgb(251, 251, 251);&quot;&gt;Success&lt;/span&gt;" style="edgeLabel;html=1;align=center;verticalAlign=middle;resizable=1;points=[];spacingLeft=3;spacingRight=-2;spacingBottom=22;container=0;movable=1;rotatable=1;deletable=1;editable=1;locked=0;connectable=1;" connectable="0" vertex="1" parent="KfVdgGBA4cppGUbjS1bN-84">
          <mxGeometry x="0.0394" relative="1" as="geometry">
            <mxPoint as="offset" />
          </mxGeometry>
        </mxCell>
        <mxCell id="KfVdgGBA4cppGUbjS1bN-87" value="&lt;font face=&quot;SFMono-Regular, Menlo, Consolas, PT Mono, Liberation Mono, Courier, monospace&quot;&gt;&lt;span style=&quot;font-size: 10.2px;&quot;&gt;&lt;b&gt;Glue Job Status&lt;/b&gt;&lt;/span&gt;&lt;/font&gt;" style="html=1;dashed=0;whiteSpace=wrap;shape=mxgraph.dfd.start;align=center;verticalAlign=middle;spacingBottom=3;container=0;movable=1;resizable=1;rotatable=1;deletable=1;editable=1;locked=0;connectable=1;" vertex="1" parent="HszNG5Km89kw8XTW4GH8-13">
          <mxGeometry x="502" y="126" width="100" height="25" as="geometry" />
        </mxCell>
        <mxCell id="KfVdgGBA4cppGUbjS1bN-88" value="" style="edgeStyle=orthogonalEdgeStyle;html=1;endArrow=openThin;elbow=vertical;startArrow=none;endFill=0;strokeColor=#545B64;rounded=1;entryX=0;entryY=0.5;entryDx=0;entryDy=0;entryPerimeter=0;curved=0;movable=1;resizable=1;rotatable=1;deletable=1;editable=1;locked=0;connectable=1;" edge="1" parent="HszNG5Km89kw8XTW4GH8-13" source="KfVdgGBA4cppGUbjS1bN-41" target="KfVdgGBA4cppGUbjS1bN-87">
          <mxGeometry width="100" relative="1" as="geometry">
            <mxPoint x="530" y="90" as="sourcePoint" />
            <mxPoint x="630" y="90" as="targetPoint" />
          </mxGeometry>
        </mxCell>
        <mxCell id="KfVdgGBA4cppGUbjS1bN-90" value="&lt;span class=&quot;notion-enable-hover&quot; spellcheck=&quot;false&quot; data-token-index=&quot;0&quot; style=&quot;font-family: SFMono-Regular, Menlo, Consolas, &amp;quot;PT Mono&amp;quot;, &amp;quot;Liberation Mono&amp;quot;, Courier, monospace; line-height: normal; background-image: initial; background-position: initial; background-size: initial; background-repeat: initial; background-attachment: initial; background-origin: initial; background-clip: initial; border-radius: 4px; font-size: 85%; padding: 0.2em 0.4em; font-weight: 600; isolation: auto; fill: rgb(51, 126, 169);&quot;&gt;&lt;font style=&quot;color: rgb(0, 0, 0);&quot;&gt;SNS: Success Notification&lt;/font&gt;&lt;/span&gt;" style="sketch=0;points=[[0,0,0],[0.25,0,0],[0.5,0,0],[0.75,0,0],[1,0,0],[0,1,0],[0.25,1,0],[0.5,1,0],[0.75,1,0],[1,1,0],[0,0.25,0],[0,0.5,0],[0,0.75,0],[1,0.25,0],[1,0.5,0],[1,0.75,0]];outlineConnect=0;fontColor=#232F3E;fillColor=#E7157B;strokeColor=#ffffff;dashed=0;verticalLabelPosition=bottom;verticalAlign=top;align=center;html=1;fontSize=12;fontStyle=0;aspect=fixed;shape=mxgraph.aws4.resourceIcon;resIcon=mxgraph.aws4.sns;container=0;movable=1;resizable=1;rotatable=1;deletable=1;editable=1;locked=0;connectable=1;" vertex="1" parent="HszNG5Km89kw8XTW4GH8-13">
          <mxGeometry x="660" y="151.00000000000006" width="50" height="50" as="geometry" />
        </mxCell>
        <mxCell id="KfVdgGBA4cppGUbjS1bN-91" value="&lt;span class=&quot;notion-enable-hover&quot; spellcheck=&quot;false&quot; data-token-index=&quot;0&quot; style=&quot;font-family: SFMono-Regular, Menlo, Consolas, &amp;quot;PT Mono&amp;quot;, &amp;quot;Liberation Mono&amp;quot;, Courier, monospace; line-height: normal; background-image: initial; background-position: initial; background-size: initial; background-repeat: initial; background-attachment: initial; background-origin: initial; background-clip: initial; border-radius: 4px; font-size: 85%; padding: 0.2em 0.4em; font-weight: 600; isolation: auto; fill: rgb(51, 126, 169);&quot;&gt;&lt;font style=&quot;color: rgb(0, 0, 0);&quot;&gt;SNS: Failure Notification&lt;/font&gt;&lt;/span&gt;" style="sketch=0;points=[[0,0,0],[0.25,0,0],[0.5,0,0],[0.75,0,0],[1,0,0],[0,1,0],[0.25,1,0],[0.5,1,0],[0.75,1,0],[1,1,0],[0,0.25,0],[0,0.5,0],[0,0.75,0],[1,0.25,0],[1,0.5,0],[1,0.75,0]];outlineConnect=0;fontColor=#232F3E;fillColor=#E7157B;strokeColor=#ffffff;dashed=0;verticalLabelPosition=bottom;verticalAlign=top;align=center;html=1;fontSize=12;fontStyle=0;aspect=fixed;shape=mxgraph.aws4.resourceIcon;resIcon=mxgraph.aws4.sns;container=0;spacingTop=1;spacingLeft=-5;movable=1;resizable=1;rotatable=1;deletable=1;editable=1;locked=0;connectable=1;" vertex="1" parent="HszNG5Km89kw8XTW4GH8-13">
          <mxGeometry x="660" y="58.75" width="50" height="50" as="geometry" />
        </mxCell>
        <mxCell id="KfVdgGBA4cppGUbjS1bN-92" value="" style="edgeStyle=orthogonalEdgeStyle;html=1;endArrow=openThin;elbow=vertical;startArrow=none;endFill=0;strokeColor=#545B64;rounded=1;exitX=1;exitY=0.5;exitDx=0;exitDy=0;exitPerimeter=0;curved=0;movable=1;resizable=1;rotatable=1;deletable=1;editable=1;locked=0;connectable=1;" edge="1" parent="HszNG5Km89kw8XTW4GH8-13" source="KfVdgGBA4cppGUbjS1bN-87" target="KfVdgGBA4cppGUbjS1bN-91">
          <mxGeometry width="100" relative="1" as="geometry">
            <mxPoint x="635" y="138.01999999999998" as="sourcePoint" />
            <mxPoint x="735" y="138.01999999999998" as="targetPoint" />
          </mxGeometry>
        </mxCell>
        <mxCell id="KfVdgGBA4cppGUbjS1bN-93" value="" style="edgeStyle=orthogonalEdgeStyle;html=1;endArrow=openThin;elbow=vertical;startArrow=none;endFill=0;strokeColor=#545B64;rounded=1;exitX=1;exitY=0.5;exitDx=0;exitDy=0;exitPerimeter=0;entryX=0;entryY=0.5;entryDx=0;entryDy=0;entryPerimeter=0;curved=0;movable=1;resizable=1;rotatable=1;deletable=1;editable=1;locked=0;connectable=1;" edge="1" parent="HszNG5Km89kw8XTW4GH8-13" source="KfVdgGBA4cppGUbjS1bN-87" target="KfVdgGBA4cppGUbjS1bN-90">
          <mxGeometry width="100" relative="1" as="geometry">
            <mxPoint x="550" y="180.00000000000006" as="sourcePoint" />
            <mxPoint x="650" y="180.00000000000006" as="targetPoint" />
          </mxGeometry>
        </mxCell>
        <mxCell id="KfVdgGBA4cppGUbjS1bN-94" value="" style="edgeStyle=orthogonalEdgeStyle;html=1;endArrow=openThin;elbow=vertical;startArrow=none;endFill=0;strokeColor=#545B64;rounded=1;exitX=0.5;exitY=0;exitDx=0;exitDy=0;exitPerimeter=0;curved=0;movable=1;resizable=1;rotatable=1;deletable=1;editable=1;locked=0;connectable=1;" edge="1" parent="HszNG5Km89kw8XTW4GH8-13" source="KfVdgGBA4cppGUbjS1bN-41" target="KfVdgGBA4cppGUbjS1bN-91">
          <mxGeometry width="100" relative="1" as="geometry">
            <mxPoint x="530" y="60" as="sourcePoint" />
            <mxPoint x="630" y="60" as="targetPoint" />
            <Array as="points">
              <mxPoint x="445" y="85" />
            </Array>
          </mxGeometry>
        </mxCell>
        <mxCell id="KfVdgGBA4cppGUbjS1bN-96" value="&lt;span style=&quot;font-family: SFMono-Regular, Menlo, Consolas, &amp;quot;PT Mono&amp;quot;, &amp;quot;Liberation Mono&amp;quot;, Courier, monospace; font-size: 10.2px; font-weight: 600; text-wrap-mode: nowrap;&quot;&gt;End&lt;/span&gt;" style="strokeWidth=2;html=1;shape=mxgraph.flowchart.start_2;whiteSpace=wrap;fillColor=#fff2cc;strokeColor=#d6b656;container=0;movable=1;resizable=1;rotatable=1;deletable=1;editable=1;locked=0;connectable=1;" vertex="1" parent="HszNG5Km89kw8XTW4GH8-13">
          <mxGeometry x="812" y="108.75" width="40" height="40" as="geometry" />
        </mxCell>
        <mxCell id="KfVdgGBA4cppGUbjS1bN-97" value="" style="edgeStyle=elbowEdgeStyle;html=1;endArrow=openThin;elbow=vertical;startArrow=none;endFill=0;strokeColor=#545B64;rounded=1;exitX=1;exitY=0.5;exitDx=0;exitDy=0;exitPerimeter=0;curved=0;movable=1;resizable=1;rotatable=1;deletable=1;editable=1;locked=0;connectable=1;" edge="1" parent="HszNG5Km89kw8XTW4GH8-13" source="KfVdgGBA4cppGUbjS1bN-91" target="KfVdgGBA4cppGUbjS1bN-96">
          <mxGeometry width="100" relative="1" as="geometry">
            <mxPoint x="720" y="90" as="sourcePoint" />
            <mxPoint x="820" y="90" as="targetPoint" />
          </mxGeometry>
        </mxCell>
        <mxCell id="KfVdgGBA4cppGUbjS1bN-98" value="" style="edgeStyle=orthogonalEdgeStyle;html=1;endArrow=openThin;elbow=vertical;startArrow=none;endFill=0;strokeColor=#545B64;rounded=1;curved=0;entryX=0.5;entryY=1;entryDx=0;entryDy=0;entryPerimeter=0;movable=1;resizable=1;rotatable=1;deletable=1;editable=1;locked=0;connectable=1;" edge="1" parent="HszNG5Km89kw8XTW4GH8-13" source="KfVdgGBA4cppGUbjS1bN-90" target="KfVdgGBA4cppGUbjS1bN-96">
          <mxGeometry width="100" relative="1" as="geometry">
            <mxPoint x="720" y="170.00000000000006" as="sourcePoint" />
            <mxPoint x="820" y="170.00000000000006" as="targetPoint" />
          </mxGeometry>
        </mxCell>
        <mxCell id="HszNG5Km89kw8XTW4GH8-11" value="" style="edgeStyle=orthogonalEdgeStyle;html=1;endArrow=openThin;elbow=vertical;startArrow=none;endFill=0;strokeColor=#009900;rounded=1;curved=0;strokeWidth=3;exitX=0.507;exitY=1;exitDx=0;exitDy=0;exitPerimeter=0;movable=1;resizable=1;rotatable=1;deletable=1;editable=1;locked=0;connectable=1;flowAnimation=1;" edge="1" parent="1" source="KfVdgGBA4cppGUbjS1bN-1">
          <mxGeometry width="100" relative="1" as="geometry">
            <mxPoint x="2089.0129870129867" y="-49.63999999999987" as="sourcePoint" />
            <mxPoint x="2781" y="-532.987012987013" as="targetPoint" />
            <Array as="points">
              <mxPoint x="2090" y="349" />
              <mxPoint x="3098" y="349" />
              <mxPoint x="3098" y="-533" />
            </Array>
          </mxGeometry>
        </mxCell>
        <mxCell id="KfVdgGBA4cppGUbjS1bN-1" value="&lt;span class=&quot;notion-enable-hover&quot; spellcheck=&quot;false&quot; data-token-index=&quot;0&quot; style=&quot;font-family: SFMono-Regular, Menlo, Consolas, &amp;quot;PT Mono&amp;quot;, &amp;quot;Liberation Mono&amp;quot;, Courier, monospace; line-height: normal; background-image: initial; background-position: initial; background-size: initial; background-repeat: initial; background-attachment: initial; background-origin: initial; background-clip: initial; border-radius: 4px; font-size: 85%; padding: 0.2em 0.4em; font-weight: 600; isolation: auto; fill: rgb(51, 126, 169);&quot;&gt;&lt;font style=&quot;color: rgb(0, 0, 0);&quot;&gt;united-data-landing&lt;/font&gt;&lt;/span&gt;" style="points=[[0,0,0],[0.25,0,0],[0.5,0,0],[0.75,0,0],[1,0,0],[0,1,0],[0.25,1,0],[0.5,1,0],[0.75,1,0],[1,1,0],[0,0.25,0],[0,0.5,0],[0,0.75,0],[1,0.25,0],[1,0.5,0],[1,0.75,0]];outlineConnect=0;fontColor=#232F3E;fillColor=#7AA116;strokeColor=#ffffff;dashed=0;verticalLabelPosition=bottom;verticalAlign=top;align=center;html=1;fontSize=12;fontStyle=0;aspect=fixed;shape=mxgraph.aws4.resourceIcon;resIcon=mxgraph.aws4.s3;gradientColor=none;fillStyle=auto;spacingBottom=0;spacingLeft=4;labelBackgroundColor=#F0F0F0;movable=1;resizable=1;rotatable=1;deletable=1;editable=1;locked=0;connectable=1;" vertex="1" parent="1">
          <mxGeometry x="2060" y="-109.63999999999993" width="60" height="60" as="geometry" />
        </mxCell>
        <mxCell id="KfVdgGBA4cppGUbjS1bN-8" value="&lt;span style=&quot;color: rgb(0, 0, 0); font-family: SFMono-Regular, Menlo, Consolas, &amp;quot;PT Mono&amp;quot;, &amp;quot;Liberation Mono&amp;quot;, Courier, monospace; font-weight: 600; text-align: center; text-wrap-mode: nowrap;&quot;&gt;&lt;font style=&quot;font-size: 14px;&quot;&gt;us-east-2 Region&lt;/font&gt;&lt;/span&gt;" style="points=[[0,0],[0.25,0],[0.5,0],[0.75,0],[1,0],[1,0.25],[1,0.5],[1,0.75],[1,1],[0.75,1],[0.5,1],[0.25,1],[0,1],[0,0.75],[0,0.5],[0,0.25]];outlineConnect=0;gradientColor=none;html=1;whiteSpace=wrap;fontSize=12;fontStyle=0;container=1;pointerEvents=0;collapsible=0;recursiveResize=0;shape=mxgraph.aws4.group;grIcon=mxgraph.aws4.group_region;strokeColor=#00A4A6;fillColor=none;verticalAlign=top;align=left;spacingLeft=30;fontColor=#147EBA;dashed=1;strokeWidth=3;movable=1;resizable=1;rotatable=1;deletable=1;editable=1;locked=0;connectable=1;" vertex="1" parent="1">
          <mxGeometry x="1789" y="-1011" width="1369" height="1420" as="geometry" />
        </mxCell>
        <mxCell id="ogD9vOvKOTsoDzAMYJkQ-47" value="" style="edgeStyle=orthogonalEdgeStyle;html=1;endArrow=open;elbow=vertical;startArrow=none;endFill=0;strokeColor=#545B64;rounded=1;curved=0;movable=1;resizable=1;rotatable=1;deletable=1;editable=1;locked=0;connectable=1;" edge="1" parent="1" source="KfVdgGBA4cppGUbjS1bN-25" target="KfVdgGBA4cppGUbjS1bN-40">
          <mxGeometry width="100" relative="1" as="geometry">
            <mxPoint x="2379" y="23.439999999999998" as="sourcePoint" />
            <mxPoint x="2369" y="83.44" as="targetPoint" />
            <Array as="points">
              <mxPoint x="2369" y="-43.079999999999984" />
            </Array>
          </mxGeometry>
        </mxCell>
        <mxCell id="HIjt016Xb4Ibgi4CmHj3-10" value="" style="edgeStyle=orthogonalEdgeStyle;html=1;endArrow=openThin;elbow=vertical;startArrow=none;endFill=0;strokeColor=#545B64;rounded=1;curved=0;movable=1;resizable=1;rotatable=1;deletable=1;editable=1;locked=0;connectable=1;" edge="1" parent="1" source="KfVdgGBA4cppGUbjS1bN-40" target="UVq4S3CGadxjuRh0ZdJN-3">
          <mxGeometry width="100" relative="1" as="geometry">
            <mxPoint x="2379" y="16.920000000000016" as="sourcePoint" />
            <mxPoint x="2439" y="-43.079999999999984" as="targetPoint" />
            <Array as="points">
              <mxPoint x="2379" y="-43.079999999999984" />
            </Array>
          </mxGeometry>
        </mxCell>
        <mxCell id="HszNG5Km89kw8XTW4GH8-3" value="" style="edgeStyle=orthogonalEdgeStyle;htmDepartman barl=1;endArrow=open;elbow=vertical;startArrow=halfCircle;startFill=0;endFill=0;strokeColor=#545B64;rounded=1;curved=0;strokeWidth=2;movable=1;resizable=1;rotatable=1;deletable=1;editable=1;locked=0;connectable=1;" edge="1" parent="1" source="HIjt016Xb4Ibgi4CmHj3-1" target="KfVdgGBA4cppGUbjS1bN-41">
          <mxGeometry width="100" relative="1" as="geometry">
            <mxPoint x="2659" y="26.920000000000016" as="sourcePoint" />
            <mxPoint x="2659" y="206.92000000000002" as="targetPoint" />
            <Array as="points">
              <mxPoint x="2660" y="46.920000000000016" />
              <mxPoint x="2660" y="46.920000000000016" />
            </Array>
          </mxGeometry>
        </mxCell>
      </root>
    </mxGraphModel>
  </diagram>
</mxfile>
